G04 #@! TF.GenerationSoftware,KiCad,Pcbnew,(5.1.6)-1*
G04 #@! TF.CreationDate,2020-10-21T14:23:11+02:00*
G04 #@! TF.ProjectId,Stimmungslicht,5374696d-6d75-46e6-9773-6c696368742e,rev?*
G04 #@! TF.SameCoordinates,Original*
G04 #@! TF.FileFunction,Legend,Bot*
G04 #@! TF.FilePolarity,Positive*
%FSLAX46Y46*%
G04 Gerber Fmt 4.6, Leading zero omitted, Abs format (unit mm)*
G04 Created by KiCad (PCBNEW (5.1.6)-1) date 2020-10-21 14:23:11*
%MOMM*%
%LPD*%
G01*
G04 APERTURE LIST*
%ADD10C,0.100000*%
%ADD11C,0.120000*%
%ADD12C,0.254000*%
%ADD13C,0.150000*%
G04 APERTURE END LIST*
D10*
X147731360Y-126314920D02*
X147731360Y-130564920D01*
X152281360Y-123314920D02*
X147731360Y-126314920D01*
X152281360Y-109314920D02*
X152281360Y-123314920D01*
X147731360Y-106314920D02*
X152281360Y-109314920D01*
X147731360Y-102064920D02*
X147731360Y-106314920D01*
X140731360Y-126314920D02*
X140731360Y-130564920D01*
X136181360Y-123314920D02*
X140731360Y-126314920D01*
X136181360Y-109314920D02*
X136181360Y-123314920D01*
X140731360Y-106314920D02*
X136181360Y-109314920D01*
X140731360Y-102064920D02*
X140731360Y-106314920D01*
D11*
X133701280Y-124944680D02*
X133701280Y-127744680D01*
X134401280Y-128394680D02*
X135001280Y-128394680D01*
X135701280Y-127744680D02*
X135701280Y-124944680D01*
X135001280Y-124294680D02*
X134401280Y-124294680D01*
X135901280Y-125144680D02*
X136201280Y-124844680D01*
X136201280Y-124844680D02*
X136201280Y-125444680D01*
X135901280Y-125144680D02*
X136201280Y-125444680D01*
X134401280Y-124294680D02*
G75*
G03*
X133701280Y-124994680I0J-700000D01*
G01*
X135701280Y-124994680D02*
G75*
G03*
X135001280Y-124294680I-700000J0D01*
G01*
X135001280Y-128394680D02*
G75*
G03*
X135701280Y-127694680I0J700000D01*
G01*
X133701280Y-127694680D02*
G75*
G03*
X134401280Y-128394680I700000J0D01*
G01*
D12*
X143535883Y-115347300D02*
X144563979Y-115347300D01*
X144684931Y-115407777D01*
X144745407Y-115468253D01*
X144805883Y-115589205D01*
X144805883Y-115831110D01*
X144745407Y-115952062D01*
X144684931Y-116012539D01*
X144563979Y-116073015D01*
X143535883Y-116073015D01*
X144805883Y-117343015D02*
X144805883Y-116617300D01*
X144805883Y-116980158D02*
X143535883Y-116980158D01*
X143717312Y-116859205D01*
X143838264Y-116738253D01*
X143898740Y-116617300D01*
D13*
X132353660Y-124558965D02*
X133067946Y-124558965D01*
X133210803Y-124511346D01*
X133306041Y-124416108D01*
X133353660Y-124273251D01*
X133353660Y-124178013D01*
X133353660Y-125035156D02*
X132353660Y-125035156D01*
X132353660Y-125416108D01*
X132401280Y-125511346D01*
X132448899Y-125558965D01*
X132544137Y-125606584D01*
X132686994Y-125606584D01*
X132782232Y-125558965D01*
X132829851Y-125511346D01*
X132877470Y-125416108D01*
X132877470Y-125035156D01*
X133353660Y-126558965D02*
X133353660Y-125987537D01*
X133353660Y-126273251D02*
X132353660Y-126273251D01*
X132496518Y-126178013D01*
X132591756Y-126082775D01*
X132639375Y-125987537D01*
X132353660Y-127178013D02*
X132353660Y-127273251D01*
X132401280Y-127368489D01*
X132448899Y-127416108D01*
X132544137Y-127463727D01*
X132734613Y-127511346D01*
X132972708Y-127511346D01*
X133163184Y-127463727D01*
X133258422Y-127416108D01*
X133306041Y-127368489D01*
X133353660Y-127273251D01*
X133353660Y-127178013D01*
X133306041Y-127082775D01*
X133258422Y-127035156D01*
X133163184Y-126987537D01*
X132972708Y-126939918D01*
X132734613Y-126939918D01*
X132544137Y-126987537D01*
X132448899Y-127035156D01*
X132401280Y-127082775D01*
X132353660Y-127178013D01*
X133353660Y-128463727D02*
X133353660Y-127892299D01*
X133353660Y-128178013D02*
X132353660Y-128178013D01*
X132496518Y-128082775D01*
X132591756Y-127987537D01*
X132639375Y-127892299D01*
M02*
