G04 #@! TF.GenerationSoftware,KiCad,Pcbnew,(5.1.6)-1*
G04 #@! TF.CreationDate,2020-10-21T14:23:11+02:00*
G04 #@! TF.ProjectId,Stimmungslicht,5374696d-6d75-46e6-9773-6c696368742e,rev?*
G04 #@! TF.SameCoordinates,Original*
G04 #@! TF.FileFunction,Soldermask,Bot*
G04 #@! TF.FilePolarity,Negative*
%FSLAX46Y46*%
G04 Gerber Fmt 4.6, Leading zero omitted, Abs format (unit mm)*
G04 Created by KiCad (PCBNEW (5.1.6)-1) date 2020-10-21 14:23:11*
%MOMM*%
%LPD*%
G01*
G04 APERTURE LIST*
%ADD10C,0.100000*%
G04 APERTURE END LIST*
D10*
G36*
X139026200Y-131685600D02*
G01*
X137224200Y-131685600D01*
X137224200Y-129883600D01*
X139026200Y-129883600D01*
X139026200Y-131685600D01*
G37*
G36*
X144450419Y-129042780D02*
G01*
X144587092Y-129099392D01*
X144710095Y-129181580D01*
X144814700Y-129286185D01*
X144896888Y-129409188D01*
X144953500Y-129545861D01*
X144982360Y-129690953D01*
X144982360Y-129838887D01*
X144953500Y-129983979D01*
X144896888Y-130120652D01*
X144814700Y-130243655D01*
X144710095Y-130348260D01*
X144587092Y-130430448D01*
X144587091Y-130430449D01*
X144587090Y-130430449D01*
X144450419Y-130487060D01*
X144305328Y-130515920D01*
X144157392Y-130515920D01*
X144012301Y-130487060D01*
X143875630Y-130430449D01*
X143875629Y-130430449D01*
X143875628Y-130430448D01*
X143752625Y-130348260D01*
X143648020Y-130243655D01*
X143565832Y-130120652D01*
X143509220Y-129983979D01*
X143480360Y-129838887D01*
X143480360Y-129690953D01*
X143509220Y-129545861D01*
X143565832Y-129409188D01*
X143648020Y-129286185D01*
X143752625Y-129181580D01*
X143875628Y-129099392D01*
X144012301Y-129042780D01*
X144157392Y-129013920D01*
X144305328Y-129013920D01*
X144450419Y-129042780D01*
G37*
G36*
X134963479Y-124494634D02*
G01*
X134975730Y-124495236D01*
X134994149Y-124495236D01*
X135016429Y-124497430D01*
X135100513Y-124514156D01*
X135121940Y-124520656D01*
X135201138Y-124553460D01*
X135206583Y-124556371D01*
X135206589Y-124556373D01*
X135215449Y-124561109D01*
X135215453Y-124561112D01*
X135220894Y-124564020D01*
X135292179Y-124611651D01*
X135309484Y-124625852D01*
X135370108Y-124686476D01*
X135384309Y-124703781D01*
X135431940Y-124775066D01*
X135434848Y-124780507D01*
X135434851Y-124780511D01*
X135439587Y-124789371D01*
X135439589Y-124789377D01*
X135442500Y-124794822D01*
X135475304Y-124874020D01*
X135481804Y-124895447D01*
X135498530Y-124979531D01*
X135500724Y-125001811D01*
X135500724Y-125020230D01*
X135501326Y-125032481D01*
X135503132Y-125050819D01*
X135503132Y-125588540D01*
X135501543Y-125604679D01*
X135497135Y-125619208D01*
X135491674Y-125632391D01*
X135486892Y-125656425D01*
X135486891Y-125680929D01*
X135491671Y-125704962D01*
X135501048Y-125727601D01*
X135502280Y-125729445D01*
X135502280Y-126960730D01*
X135495805Y-126972844D01*
X135488692Y-126996293D01*
X135486290Y-127020679D01*
X135488692Y-127045065D01*
X135495805Y-127068514D01*
X135498128Y-127073426D01*
X135501543Y-127084681D01*
X135503132Y-127100820D01*
X135503132Y-127638542D01*
X135501326Y-127656879D01*
X135500724Y-127669130D01*
X135500724Y-127687549D01*
X135498530Y-127709829D01*
X135481804Y-127793913D01*
X135475304Y-127815340D01*
X135442500Y-127894538D01*
X135439589Y-127899983D01*
X135439587Y-127899989D01*
X135434851Y-127908849D01*
X135434848Y-127908853D01*
X135431940Y-127914294D01*
X135384309Y-127985579D01*
X135370108Y-128002884D01*
X135309484Y-128063508D01*
X135292179Y-128077709D01*
X135220894Y-128125340D01*
X135215453Y-128128248D01*
X135215449Y-128128251D01*
X135206589Y-128132987D01*
X135206583Y-128132989D01*
X135201138Y-128135900D01*
X135121940Y-128168704D01*
X135100513Y-128175204D01*
X135016429Y-128191930D01*
X134994149Y-128194124D01*
X134975730Y-128194124D01*
X134963479Y-128194726D01*
X134945142Y-128196532D01*
X134457418Y-128196532D01*
X134439081Y-128194726D01*
X134426830Y-128194124D01*
X134408411Y-128194124D01*
X134386131Y-128191930D01*
X134302047Y-128175204D01*
X134280620Y-128168704D01*
X134201422Y-128135900D01*
X134195977Y-128132989D01*
X134195971Y-128132987D01*
X134187111Y-128128251D01*
X134187107Y-128128248D01*
X134181666Y-128125340D01*
X134110381Y-128077709D01*
X134093076Y-128063508D01*
X134032452Y-128002884D01*
X134018251Y-127985579D01*
X133970620Y-127914294D01*
X133967712Y-127908853D01*
X133967709Y-127908849D01*
X133962973Y-127899989D01*
X133962971Y-127899983D01*
X133960060Y-127894538D01*
X133927256Y-127815340D01*
X133920756Y-127793913D01*
X133904030Y-127709829D01*
X133901836Y-127687549D01*
X133901836Y-127669130D01*
X133901234Y-127656879D01*
X133899428Y-127638542D01*
X133899428Y-127100820D01*
X133901017Y-127084681D01*
X133905425Y-127070152D01*
X133910886Y-127056969D01*
X133915668Y-127032935D01*
X133915669Y-127008431D01*
X133910889Y-126984398D01*
X133901512Y-126961759D01*
X133900280Y-126959915D01*
X133900280Y-125728630D01*
X133906755Y-125716516D01*
X133913868Y-125693067D01*
X133916270Y-125668681D01*
X133913868Y-125644295D01*
X133906755Y-125620846D01*
X133904432Y-125615934D01*
X133901017Y-125604679D01*
X133899428Y-125588540D01*
X133899428Y-125050819D01*
X133901234Y-125032481D01*
X133901836Y-125020230D01*
X133901836Y-125001811D01*
X133904030Y-124979531D01*
X133920756Y-124895447D01*
X133927256Y-124874020D01*
X133960060Y-124794822D01*
X133962971Y-124789377D01*
X133962973Y-124789371D01*
X133967709Y-124780511D01*
X133967712Y-124780507D01*
X133970620Y-124775066D01*
X134018251Y-124703781D01*
X134032452Y-124686476D01*
X134093076Y-124625852D01*
X134110381Y-124611651D01*
X134181666Y-124564020D01*
X134187107Y-124561112D01*
X134187111Y-124561109D01*
X134195971Y-124556373D01*
X134195977Y-124556371D01*
X134201422Y-124553460D01*
X134280620Y-124520656D01*
X134302047Y-124514156D01*
X134386131Y-124497430D01*
X134408411Y-124495236D01*
X134426830Y-124495236D01*
X134439081Y-124494634D01*
X134457419Y-124492828D01*
X134945141Y-124492828D01*
X134963479Y-124494634D01*
G37*
G36*
X130364712Y-121760527D02*
G01*
X130514012Y-121790224D01*
X130677984Y-121858144D01*
X130825554Y-121956747D01*
X130951053Y-122082246D01*
X131049656Y-122229816D01*
X131117576Y-122393788D01*
X131152200Y-122567859D01*
X131152200Y-122745341D01*
X131117576Y-122919412D01*
X131049656Y-123083384D01*
X130951053Y-123230954D01*
X130825554Y-123356453D01*
X130677984Y-123455056D01*
X130514012Y-123522976D01*
X130364712Y-123552673D01*
X130339942Y-123557600D01*
X130162458Y-123557600D01*
X130137688Y-123552673D01*
X129988388Y-123522976D01*
X129824416Y-123455056D01*
X129676846Y-123356453D01*
X129551347Y-123230954D01*
X129452744Y-123083384D01*
X129384824Y-122919412D01*
X129350200Y-122745341D01*
X129350200Y-122567859D01*
X129384824Y-122393788D01*
X129452744Y-122229816D01*
X129551347Y-122082246D01*
X129676846Y-121956747D01*
X129824416Y-121858144D01*
X129988388Y-121790224D01*
X130137688Y-121760527D01*
X130162458Y-121755600D01*
X130339942Y-121755600D01*
X130364712Y-121760527D01*
G37*
G36*
X130364712Y-119220527D02*
G01*
X130514012Y-119250224D01*
X130677984Y-119318144D01*
X130825554Y-119416747D01*
X130951053Y-119542246D01*
X131049656Y-119689816D01*
X131117576Y-119853788D01*
X131152200Y-120027859D01*
X131152200Y-120205341D01*
X131117576Y-120379412D01*
X131049656Y-120543384D01*
X130951053Y-120690954D01*
X130825554Y-120816453D01*
X130677984Y-120915056D01*
X130514012Y-120982976D01*
X130364712Y-121012673D01*
X130339942Y-121017600D01*
X130162458Y-121017600D01*
X130137688Y-121012673D01*
X129988388Y-120982976D01*
X129824416Y-120915056D01*
X129676846Y-120816453D01*
X129551347Y-120690954D01*
X129452744Y-120543384D01*
X129384824Y-120379412D01*
X129350200Y-120205341D01*
X129350200Y-120027859D01*
X129384824Y-119853788D01*
X129452744Y-119689816D01*
X129551347Y-119542246D01*
X129676846Y-119416747D01*
X129824416Y-119318144D01*
X129988388Y-119250224D01*
X130137688Y-119220527D01*
X130162458Y-119215600D01*
X130339942Y-119215600D01*
X130364712Y-119220527D01*
G37*
G36*
X160038940Y-119215227D02*
G01*
X160087336Y-119224853D01*
X160125102Y-119240496D01*
X160178511Y-119262619D01*
X160178512Y-119262620D01*
X160260569Y-119317448D01*
X160330352Y-119387231D01*
X160330353Y-119387233D01*
X160385181Y-119469289D01*
X160407304Y-119522698D01*
X160422947Y-119560464D01*
X160442200Y-119657256D01*
X160442200Y-119755944D01*
X160422947Y-119852736D01*
X160407304Y-119890502D01*
X160385181Y-119943911D01*
X160385180Y-119943912D01*
X160330352Y-120025969D01*
X160260569Y-120095752D01*
X160219262Y-120123352D01*
X160178511Y-120150581D01*
X160125102Y-120172704D01*
X160087336Y-120188347D01*
X160038940Y-120197973D01*
X159990545Y-120207600D01*
X159891855Y-120207600D01*
X159843460Y-120197973D01*
X159795064Y-120188347D01*
X159757298Y-120172704D01*
X159703889Y-120150581D01*
X159663138Y-120123352D01*
X159621831Y-120095752D01*
X159552048Y-120025969D01*
X159497220Y-119943912D01*
X159497219Y-119943911D01*
X159475096Y-119890502D01*
X159459453Y-119852736D01*
X159440200Y-119755944D01*
X159440200Y-119657256D01*
X159459453Y-119560464D01*
X159475096Y-119522698D01*
X159497219Y-119469289D01*
X159552047Y-119387233D01*
X159552048Y-119387231D01*
X159621831Y-119317448D01*
X159703888Y-119262620D01*
X159703889Y-119262619D01*
X159757298Y-119240496D01*
X159795064Y-119224853D01*
X159843460Y-119215227D01*
X159891855Y-119205600D01*
X159990545Y-119205600D01*
X160038940Y-119215227D01*
G37*
G36*
X130364712Y-116680527D02*
G01*
X130514012Y-116710224D01*
X130677984Y-116778144D01*
X130825554Y-116876747D01*
X130951053Y-117002246D01*
X131049656Y-117149816D01*
X131117576Y-117313788D01*
X131152200Y-117487859D01*
X131152200Y-117665341D01*
X131117576Y-117839412D01*
X131049656Y-118003384D01*
X130951053Y-118150954D01*
X130825554Y-118276453D01*
X130677984Y-118375056D01*
X130514012Y-118442976D01*
X130364712Y-118472673D01*
X130339942Y-118477600D01*
X130162458Y-118477600D01*
X130137688Y-118472673D01*
X129988388Y-118442976D01*
X129824416Y-118375056D01*
X129676846Y-118276453D01*
X129551347Y-118150954D01*
X129452744Y-118003384D01*
X129384824Y-117839412D01*
X129350200Y-117665341D01*
X129350200Y-117487859D01*
X129384824Y-117313788D01*
X129452744Y-117149816D01*
X129551347Y-117002246D01*
X129676846Y-116876747D01*
X129824416Y-116778144D01*
X129988388Y-116710224D01*
X130137688Y-116680527D01*
X130162458Y-116675600D01*
X130339942Y-116675600D01*
X130364712Y-116680527D01*
G37*
G36*
X131152200Y-115937600D02*
G01*
X129350200Y-115937600D01*
X129350200Y-114135600D01*
X131152200Y-114135600D01*
X131152200Y-115937600D01*
G37*
G36*
X160038940Y-112415226D02*
G01*
X160087336Y-112424853D01*
X160125102Y-112440496D01*
X160178511Y-112462619D01*
X160178512Y-112462620D01*
X160260569Y-112517448D01*
X160330352Y-112587231D01*
X160330353Y-112587233D01*
X160385181Y-112669289D01*
X160422947Y-112760465D01*
X160442200Y-112857255D01*
X160442200Y-112955945D01*
X160422947Y-113052735D01*
X160385181Y-113143911D01*
X160385180Y-113143912D01*
X160330352Y-113225969D01*
X160260569Y-113295752D01*
X160219262Y-113323352D01*
X160178511Y-113350581D01*
X160125102Y-113372704D01*
X160087336Y-113388347D01*
X160038940Y-113397974D01*
X159990545Y-113407600D01*
X159891855Y-113407600D01*
X159843460Y-113397974D01*
X159795064Y-113388347D01*
X159757298Y-113372704D01*
X159703889Y-113350581D01*
X159663138Y-113323352D01*
X159621831Y-113295752D01*
X159552048Y-113225969D01*
X159497220Y-113143912D01*
X159497219Y-113143911D01*
X159459453Y-113052735D01*
X159440200Y-112955945D01*
X159440200Y-112857255D01*
X159459453Y-112760465D01*
X159497219Y-112669289D01*
X159552047Y-112587233D01*
X159552048Y-112587231D01*
X159621831Y-112517448D01*
X159703888Y-112462620D01*
X159703889Y-112462619D01*
X159757298Y-112440496D01*
X159795064Y-112424853D01*
X159843460Y-112415226D01*
X159891855Y-112405600D01*
X159990545Y-112405600D01*
X160038940Y-112415226D01*
G37*
G36*
X132995673Y-106742538D02*
G01*
X133123249Y-106795382D01*
X133238059Y-106872095D01*
X133335705Y-106969741D01*
X133412418Y-107084551D01*
X133465262Y-107212127D01*
X133492200Y-107347556D01*
X133492200Y-107485644D01*
X133465262Y-107621073D01*
X133412418Y-107748649D01*
X133335705Y-107863459D01*
X133238059Y-107961105D01*
X133123249Y-108037818D01*
X132995673Y-108090662D01*
X132860244Y-108117600D01*
X132722156Y-108117600D01*
X132586727Y-108090662D01*
X132459151Y-108037818D01*
X132344341Y-107961105D01*
X132246695Y-107863459D01*
X132169982Y-107748649D01*
X132117138Y-107621073D01*
X132090200Y-107485644D01*
X132090200Y-107347556D01*
X132117138Y-107212127D01*
X132169982Y-107084551D01*
X132246695Y-106969741D01*
X132344341Y-106872095D01*
X132459151Y-106795382D01*
X132586727Y-106742538D01*
X132722156Y-106715600D01*
X132860244Y-106715600D01*
X132995673Y-106742538D01*
G37*
G36*
X155855673Y-106742538D02*
G01*
X155983249Y-106795382D01*
X156098059Y-106872095D01*
X156195705Y-106969741D01*
X156272418Y-107084551D01*
X156325262Y-107212127D01*
X156352200Y-107347556D01*
X156352200Y-107485644D01*
X156325262Y-107621073D01*
X156272418Y-107748649D01*
X156195705Y-107863459D01*
X156098059Y-107961105D01*
X155983249Y-108037818D01*
X155855673Y-108090662D01*
X155720244Y-108117600D01*
X155582156Y-108117600D01*
X155446727Y-108090662D01*
X155319151Y-108037818D01*
X155204341Y-107961105D01*
X155106695Y-107863459D01*
X155029982Y-107748649D01*
X154977138Y-107621073D01*
X154950200Y-107485644D01*
X154950200Y-107347556D01*
X154977138Y-107212127D01*
X155029982Y-107084551D01*
X155106695Y-106969741D01*
X155204341Y-106872095D01*
X155319151Y-106795382D01*
X155446727Y-106742538D01*
X155582156Y-106715600D01*
X155720244Y-106715600D01*
X155855673Y-106742538D01*
G37*
G36*
X145663966Y-102131551D02*
G01*
X145720419Y-102142780D01*
X145857092Y-102199392D01*
X145980095Y-102281580D01*
X146084700Y-102386185D01*
X146166888Y-102509188D01*
X146166889Y-102509190D01*
X146223500Y-102645861D01*
X146247232Y-102765169D01*
X146252360Y-102790953D01*
X146252360Y-102938887D01*
X146223500Y-103083979D01*
X146166888Y-103220652D01*
X146084700Y-103343655D01*
X145980095Y-103448260D01*
X145857092Y-103530448D01*
X145857091Y-103530449D01*
X145857090Y-103530449D01*
X145720419Y-103587060D01*
X145575328Y-103615920D01*
X145427392Y-103615920D01*
X145282301Y-103587060D01*
X145145630Y-103530449D01*
X145145629Y-103530449D01*
X145145628Y-103530448D01*
X145022625Y-103448260D01*
X144918020Y-103343655D01*
X144835832Y-103220652D01*
X144779220Y-103083979D01*
X144750360Y-102938887D01*
X144750360Y-102790953D01*
X144755489Y-102765169D01*
X144779220Y-102645861D01*
X144835831Y-102509190D01*
X144835832Y-102509188D01*
X144918020Y-102386185D01*
X145022625Y-102281580D01*
X145145628Y-102199392D01*
X145282301Y-102142780D01*
X145338754Y-102131551D01*
X145427392Y-102113920D01*
X145575328Y-102113920D01*
X145663966Y-102131551D01*
G37*
G36*
X143123966Y-102131551D02*
G01*
X143180419Y-102142780D01*
X143317092Y-102199392D01*
X143440095Y-102281580D01*
X143544700Y-102386185D01*
X143626888Y-102509188D01*
X143626889Y-102509190D01*
X143683500Y-102645861D01*
X143707232Y-102765169D01*
X143712360Y-102790953D01*
X143712360Y-102938887D01*
X143683500Y-103083979D01*
X143626888Y-103220652D01*
X143544700Y-103343655D01*
X143440095Y-103448260D01*
X143317092Y-103530448D01*
X143317091Y-103530449D01*
X143317090Y-103530449D01*
X143180419Y-103587060D01*
X143035328Y-103615920D01*
X142887392Y-103615920D01*
X142742301Y-103587060D01*
X142605630Y-103530449D01*
X142605629Y-103530449D01*
X142605628Y-103530448D01*
X142482625Y-103448260D01*
X142378020Y-103343655D01*
X142295832Y-103220652D01*
X142239220Y-103083979D01*
X142210360Y-102938887D01*
X142210360Y-102790953D01*
X142215489Y-102765169D01*
X142239220Y-102645861D01*
X142295831Y-102509190D01*
X142295832Y-102509188D01*
X142378020Y-102386185D01*
X142482625Y-102281580D01*
X142605628Y-102199392D01*
X142742301Y-102142780D01*
X142798754Y-102131551D01*
X142887392Y-102113920D01*
X143035328Y-102113920D01*
X143123966Y-102131551D01*
G37*
G36*
X150267673Y-101789538D02*
G01*
X150395249Y-101842382D01*
X150510059Y-101919095D01*
X150607705Y-102016741D01*
X150684418Y-102131551D01*
X150737262Y-102259127D01*
X150764200Y-102394556D01*
X150764200Y-102532644D01*
X150737262Y-102668073D01*
X150684418Y-102795649D01*
X150607705Y-102910459D01*
X150510059Y-103008105D01*
X150395249Y-103084818D01*
X150267673Y-103137662D01*
X150132244Y-103164600D01*
X149994156Y-103164600D01*
X149858727Y-103137662D01*
X149731151Y-103084818D01*
X149616341Y-103008105D01*
X149518695Y-102910459D01*
X149441982Y-102795649D01*
X149389138Y-102668073D01*
X149362200Y-102532644D01*
X149362200Y-102394556D01*
X149389138Y-102259127D01*
X149441982Y-102131551D01*
X149518695Y-102016741D01*
X149616341Y-101919095D01*
X149731151Y-101842382D01*
X149858727Y-101789538D01*
X149994156Y-101762600D01*
X150132244Y-101762600D01*
X150267673Y-101789538D01*
G37*
G36*
X138657333Y-101759058D02*
G01*
X138784909Y-101811902D01*
X138899719Y-101888615D01*
X138997365Y-101986261D01*
X139074078Y-102101071D01*
X139126922Y-102228647D01*
X139153860Y-102364076D01*
X139153860Y-102502164D01*
X139126922Y-102637593D01*
X139074078Y-102765169D01*
X138997365Y-102879979D01*
X138899719Y-102977625D01*
X138784909Y-103054338D01*
X138657333Y-103107182D01*
X138521904Y-103134120D01*
X138383816Y-103134120D01*
X138248387Y-103107182D01*
X138120811Y-103054338D01*
X138006001Y-102977625D01*
X137908355Y-102879979D01*
X137831642Y-102765169D01*
X137778798Y-102637593D01*
X137751860Y-102502164D01*
X137751860Y-102364076D01*
X137778798Y-102228647D01*
X137831642Y-102101071D01*
X137908355Y-101986261D01*
X138006001Y-101888615D01*
X138120811Y-101811902D01*
X138248387Y-101759058D01*
X138383816Y-101732120D01*
X138521904Y-101732120D01*
X138657333Y-101759058D01*
G37*
M02*
