G04 #@! TF.GenerationSoftware,KiCad,Pcbnew,(5.1.6)-1*
G04 #@! TF.CreationDate,2020-10-21T14:23:11+02:00*
G04 #@! TF.ProjectId,Stimmungslicht,5374696d-6d75-46e6-9773-6c696368742e,rev?*
G04 #@! TF.SameCoordinates,Original*
G04 #@! TF.FileFunction,Copper,L2,Bot*
G04 #@! TF.FilePolarity,Positive*
%FSLAX46Y46*%
G04 Gerber Fmt 4.6, Leading zero omitted, Abs format (unit mm)*
G04 Created by KiCad (PCBNEW (5.1.6)-1) date 2020-10-21 14:23:11*
%MOMM*%
%LPD*%
G01*
G04 APERTURE LIST*
G04 #@! TA.AperFunction,EtchedComponent*
%ADD10C,0.100000*%
G04 #@! TD*
G04 #@! TA.AperFunction,ComponentPad*
%ADD11C,1.300000*%
G04 #@! TD*
G04 #@! TA.AperFunction,ComponentPad*
%ADD12C,1.400000*%
G04 #@! TD*
G04 #@! TA.AperFunction,SMDPad,CuDef*
%ADD13C,0.100000*%
G04 #@! TD*
G04 #@! TA.AperFunction,SMDPad,CuDef*
%ADD14R,1.500000X1.000000*%
G04 #@! TD*
G04 #@! TA.AperFunction,ComponentPad*
%ADD15R,1.700000X1.700000*%
G04 #@! TD*
G04 #@! TA.AperFunction,ComponentPad*
%ADD16O,1.700000X1.700000*%
G04 #@! TD*
G04 #@! TA.AperFunction,ViaPad*
%ADD17C,1.300000*%
G04 #@! TD*
G04 #@! TA.AperFunction,Conductor*
%ADD18C,0.300000*%
G04 #@! TD*
G04 #@! TA.AperFunction,Conductor*
%ADD19C,0.254000*%
G04 #@! TD*
G04 APERTURE END LIST*
D10*
G36*
X134401280Y-125444680D02*
G01*
X134401280Y-125944680D01*
X135001280Y-125944680D01*
X135001280Y-125444680D01*
X134401280Y-125444680D01*
G37*
D11*
X150063200Y-102463600D03*
X132791200Y-107416600D03*
X155651200Y-107416600D03*
X138452860Y-102433120D03*
D12*
X144231360Y-129764920D03*
X145501360Y-102864920D03*
X142961360Y-102864920D03*
G04 #@! TA.AperFunction,SMDPad,CuDef*
D13*
G36*
X133951280Y-125594680D02*
G01*
X133951280Y-125044680D01*
X133951882Y-125044680D01*
X133951882Y-125020146D01*
X133956692Y-124971315D01*
X133966264Y-124923190D01*
X133980508Y-124876235D01*
X133999285Y-124830902D01*
X134022416Y-124787629D01*
X134049676Y-124746830D01*
X134080804Y-124708901D01*
X134115501Y-124674204D01*
X134153430Y-124643076D01*
X134194229Y-124615816D01*
X134237502Y-124592685D01*
X134282835Y-124573908D01*
X134329790Y-124559664D01*
X134377915Y-124550092D01*
X134426746Y-124545282D01*
X134451280Y-124545282D01*
X134451280Y-124544680D01*
X134951280Y-124544680D01*
X134951280Y-124545282D01*
X134975814Y-124545282D01*
X135024645Y-124550092D01*
X135072770Y-124559664D01*
X135119725Y-124573908D01*
X135165058Y-124592685D01*
X135208331Y-124615816D01*
X135249130Y-124643076D01*
X135287059Y-124674204D01*
X135321756Y-124708901D01*
X135352884Y-124746830D01*
X135380144Y-124787629D01*
X135403275Y-124830902D01*
X135422052Y-124876235D01*
X135436296Y-124923190D01*
X135445868Y-124971315D01*
X135450678Y-125020146D01*
X135450678Y-125044680D01*
X135451280Y-125044680D01*
X135451280Y-125594680D01*
X133951280Y-125594680D01*
G37*
G04 #@! TD.AperFunction*
D14*
X134701280Y-126344680D03*
G04 #@! TA.AperFunction,SMDPad,CuDef*
D13*
G36*
X135450678Y-127644680D02*
G01*
X135450678Y-127669214D01*
X135445868Y-127718045D01*
X135436296Y-127766170D01*
X135422052Y-127813125D01*
X135403275Y-127858458D01*
X135380144Y-127901731D01*
X135352884Y-127942530D01*
X135321756Y-127980459D01*
X135287059Y-128015156D01*
X135249130Y-128046284D01*
X135208331Y-128073544D01*
X135165058Y-128096675D01*
X135119725Y-128115452D01*
X135072770Y-128129696D01*
X135024645Y-128139268D01*
X134975814Y-128144078D01*
X134951280Y-128144078D01*
X134951280Y-128144680D01*
X134451280Y-128144680D01*
X134451280Y-128144078D01*
X134426746Y-128144078D01*
X134377915Y-128139268D01*
X134329790Y-128129696D01*
X134282835Y-128115452D01*
X134237502Y-128096675D01*
X134194229Y-128073544D01*
X134153430Y-128046284D01*
X134115501Y-128015156D01*
X134080804Y-127980459D01*
X134049676Y-127942530D01*
X134022416Y-127901731D01*
X133999285Y-127858458D01*
X133980508Y-127813125D01*
X133966264Y-127766170D01*
X133956692Y-127718045D01*
X133951882Y-127669214D01*
X133951882Y-127644680D01*
X133951280Y-127644680D01*
X133951280Y-127094680D01*
X135451280Y-127094680D01*
X135451280Y-127644680D01*
X135450678Y-127644680D01*
G37*
G04 #@! TD.AperFunction*
D15*
X138125200Y-130784600D03*
X130251200Y-115036600D03*
D16*
X130251200Y-117576600D03*
X130251200Y-120116600D03*
X130251200Y-122656600D03*
D17*
X138506200Y-125577600D03*
D18*
X137714200Y-126369600D02*
X138506200Y-125577600D01*
X134693660Y-126377700D02*
X137706100Y-126377700D01*
X137706100Y-126377700D02*
X137714200Y-126369600D01*
X138125200Y-130784600D02*
X135331200Y-130784600D01*
X134696200Y-130149600D02*
X134696200Y-127719601D01*
X135331200Y-130784600D02*
X134696200Y-130149600D01*
X150571200Y-102336600D02*
X149301200Y-102336600D01*
X155651200Y-107416600D02*
X155651200Y-107416600D01*
X137871200Y-102336600D02*
X139141200Y-102336600D01*
X132791200Y-107416600D02*
X132854700Y-107353100D01*
X149301200Y-102336600D02*
X144221200Y-107416600D01*
X139141200Y-102336600D02*
X144221200Y-107416600D01*
X155651200Y-107416600D02*
X150571200Y-102336600D01*
X149301200Y-102336600D02*
X149301200Y-102336600D01*
X139141200Y-102336600D02*
X139141200Y-102336600D01*
X132854700Y-107353100D02*
X137871200Y-102336600D01*
X134746201Y-125019599D02*
X134696200Y-125019599D01*
X134701280Y-123766580D02*
X134701280Y-124994679D01*
X144221200Y-107416600D02*
X144221200Y-114246660D01*
X144221200Y-114246660D02*
X134701280Y-123766580D01*
D19*
G36*
X146741390Y-98238269D02*
G01*
X148397619Y-98547872D01*
X150018217Y-99008972D01*
X151589357Y-99617634D01*
X153097634Y-100368667D01*
X154530180Y-101255662D01*
X155874774Y-102271052D01*
X157119944Y-103406174D01*
X158255066Y-104651344D01*
X159270456Y-105995938D01*
X160157451Y-107428484D01*
X160908484Y-108936761D01*
X161517146Y-110507901D01*
X161978246Y-112128499D01*
X162287849Y-113784728D01*
X162443314Y-115462459D01*
X162443314Y-117147377D01*
X162287849Y-118825108D01*
X161978246Y-120481337D01*
X161517146Y-122101935D01*
X160908484Y-123673075D01*
X160157451Y-125181352D01*
X159270456Y-126613898D01*
X158255066Y-127958492D01*
X157119944Y-129203662D01*
X155874774Y-130338784D01*
X154530180Y-131354174D01*
X153097634Y-132241169D01*
X151589357Y-132992202D01*
X150018217Y-133600864D01*
X148397619Y-134061964D01*
X146741390Y-134371567D01*
X145063659Y-134527032D01*
X143378741Y-134527032D01*
X141701010Y-134371567D01*
X140044781Y-134061964D01*
X138424183Y-133600864D01*
X136853043Y-132992202D01*
X135344766Y-132241169D01*
X133912220Y-131354174D01*
X132567626Y-130338784D01*
X131322456Y-129203662D01*
X130187334Y-127958492D01*
X129171944Y-126613898D01*
X128284949Y-125181352D01*
X127533916Y-123673075D01*
X127083471Y-122510340D01*
X128766200Y-122510340D01*
X128766200Y-122802860D01*
X128823268Y-123089758D01*
X128935210Y-123360011D01*
X129097725Y-123603232D01*
X129304568Y-123810075D01*
X129547789Y-123972590D01*
X129818042Y-124084532D01*
X130104940Y-124141600D01*
X130397460Y-124141600D01*
X130684358Y-124084532D01*
X130954611Y-123972590D01*
X131197832Y-123810075D01*
X131404675Y-123603232D01*
X131567190Y-123360011D01*
X131679132Y-123089758D01*
X131736200Y-122802860D01*
X131736200Y-122510340D01*
X131679132Y-122223442D01*
X131567190Y-121953189D01*
X131404675Y-121709968D01*
X131197832Y-121503125D01*
X131015666Y-121381405D01*
X131132555Y-121311778D01*
X131348788Y-121116869D01*
X131522841Y-120883520D01*
X131648025Y-120620699D01*
X131692676Y-120473490D01*
X131571355Y-120243600D01*
X130378200Y-120243600D01*
X130378200Y-120263600D01*
X130124200Y-120263600D01*
X130124200Y-120243600D01*
X128931045Y-120243600D01*
X128809724Y-120473490D01*
X128854375Y-120620699D01*
X128979559Y-120883520D01*
X129153612Y-121116869D01*
X129369845Y-121311778D01*
X129486734Y-121381405D01*
X129304568Y-121503125D01*
X129097725Y-121709968D01*
X128935210Y-121953189D01*
X128823268Y-122223442D01*
X128766200Y-122510340D01*
X127083471Y-122510340D01*
X126925254Y-122101935D01*
X126464154Y-120481337D01*
X126154551Y-118825108D01*
X125999086Y-117147377D01*
X125999086Y-115462459D01*
X126117311Y-114186600D01*
X128763128Y-114186600D01*
X128763128Y-115886600D01*
X128775388Y-116011082D01*
X128811698Y-116130780D01*
X128870663Y-116241094D01*
X128950015Y-116337785D01*
X129046706Y-116417137D01*
X129157020Y-116476102D01*
X129229580Y-116498113D01*
X129097725Y-116629968D01*
X128935210Y-116873189D01*
X128823268Y-117143442D01*
X128766200Y-117430340D01*
X128766200Y-117722860D01*
X128823268Y-118009758D01*
X128935210Y-118280011D01*
X129097725Y-118523232D01*
X129304568Y-118730075D01*
X129486734Y-118851795D01*
X129369845Y-118921422D01*
X129153612Y-119116331D01*
X128979559Y-119349680D01*
X128854375Y-119612501D01*
X128809724Y-119759710D01*
X128931045Y-119989600D01*
X130124200Y-119989600D01*
X130124200Y-119969600D01*
X130378200Y-119969600D01*
X130378200Y-119989600D01*
X131571355Y-119989600D01*
X131692676Y-119759710D01*
X131648025Y-119612501D01*
X131522841Y-119349680D01*
X131348788Y-119116331D01*
X131132555Y-118921422D01*
X131015666Y-118851795D01*
X131197832Y-118730075D01*
X131404675Y-118523232D01*
X131567190Y-118280011D01*
X131679132Y-118009758D01*
X131736200Y-117722860D01*
X131736200Y-117430340D01*
X131679132Y-117143442D01*
X131567190Y-116873189D01*
X131404675Y-116629968D01*
X131272820Y-116498113D01*
X131345380Y-116476102D01*
X131455694Y-116417137D01*
X131552385Y-116337785D01*
X131631737Y-116241094D01*
X131690702Y-116130780D01*
X131727012Y-116011082D01*
X131739272Y-115886600D01*
X131739272Y-114186600D01*
X131727012Y-114062118D01*
X131690702Y-113942420D01*
X131631737Y-113832106D01*
X131552385Y-113735415D01*
X131455694Y-113656063D01*
X131345380Y-113597098D01*
X131225682Y-113560788D01*
X131101200Y-113548528D01*
X129401200Y-113548528D01*
X129276718Y-113560788D01*
X129157020Y-113597098D01*
X129046706Y-113656063D01*
X128950015Y-113735415D01*
X128870663Y-113832106D01*
X128811698Y-113942420D01*
X128775388Y-114062118D01*
X128763128Y-114186600D01*
X126117311Y-114186600D01*
X126154551Y-113784728D01*
X126464154Y-112128499D01*
X126925254Y-110507901D01*
X127533916Y-108936761D01*
X128284949Y-107428484D01*
X128382379Y-107271128D01*
X131314200Y-107271128D01*
X131314200Y-107562072D01*
X131370960Y-107847425D01*
X131482299Y-108116222D01*
X131643939Y-108358133D01*
X131849667Y-108563861D01*
X132091578Y-108725501D01*
X132360375Y-108836840D01*
X132645728Y-108893600D01*
X132936672Y-108893600D01*
X133222025Y-108836840D01*
X133490822Y-108725501D01*
X133732733Y-108563861D01*
X133938461Y-108358133D01*
X134100101Y-108116222D01*
X134211440Y-107847425D01*
X134268200Y-107562072D01*
X134268200Y-107321286D01*
X137819867Y-103769620D01*
X138022035Y-103853360D01*
X138307388Y-103910120D01*
X138598332Y-103910120D01*
X138883685Y-103853360D01*
X139152482Y-103742021D01*
X139159947Y-103737033D01*
X143244200Y-107821287D01*
X143244201Y-113841972D01*
X134044378Y-123041796D01*
X134007094Y-123072394D01*
X133885004Y-123221162D01*
X133810788Y-123360011D01*
X133794283Y-123390890D01*
X133738417Y-123575055D01*
X133719553Y-123766580D01*
X133724280Y-123814574D01*
X133724280Y-123932560D01*
X133672403Y-123967223D01*
X133546477Y-124070569D01*
X133477169Y-124139877D01*
X133373823Y-124265803D01*
X133319367Y-124347302D01*
X133242573Y-124490975D01*
X133205064Y-124581531D01*
X133157776Y-124737418D01*
X133138654Y-124833551D01*
X133122687Y-124995671D01*
X133122687Y-125020231D01*
X133120279Y-125044680D01*
X133120279Y-125594680D01*
X133132590Y-125719680D01*
X133120279Y-125844680D01*
X133120279Y-126844680D01*
X133136246Y-127006800D01*
X133183535Y-127162690D01*
X133260328Y-127306359D01*
X133313208Y-127370793D01*
X133313208Y-127644680D01*
X133315616Y-127669130D01*
X133315616Y-127693689D01*
X133327876Y-127818170D01*
X133346998Y-127914303D01*
X133383307Y-128033999D01*
X133420816Y-128124555D01*
X133479782Y-128234872D01*
X133534238Y-128316371D01*
X133613590Y-128413062D01*
X133682898Y-128482370D01*
X133779589Y-128561722D01*
X133861088Y-128616178D01*
X133911201Y-128642964D01*
X133911200Y-130111047D01*
X133907403Y-130149600D01*
X133911200Y-130188153D01*
X133911200Y-130188160D01*
X133922559Y-130303486D01*
X133967446Y-130451459D01*
X134040338Y-130587832D01*
X134138436Y-130707364D01*
X134168390Y-130731947D01*
X134748853Y-131312410D01*
X134773436Y-131342364D01*
X134892967Y-131440462D01*
X135029340Y-131513354D01*
X135177313Y-131558242D01*
X135252226Y-131565620D01*
X135292639Y-131569600D01*
X135292644Y-131569600D01*
X135331200Y-131573397D01*
X135369756Y-131569600D01*
X136637128Y-131569600D01*
X136637128Y-131634600D01*
X136649388Y-131759082D01*
X136685698Y-131878780D01*
X136744663Y-131989094D01*
X136824015Y-132085785D01*
X136920706Y-132165137D01*
X137031020Y-132224102D01*
X137150718Y-132260412D01*
X137275200Y-132272672D01*
X138975200Y-132272672D01*
X139099682Y-132260412D01*
X139219380Y-132224102D01*
X139329694Y-132165137D01*
X139426385Y-132085785D01*
X139505737Y-131989094D01*
X139564702Y-131878780D01*
X139601012Y-131759082D01*
X139613272Y-131634600D01*
X139613272Y-130686189D01*
X143489696Y-130686189D01*
X143549157Y-130919957D01*
X143787602Y-131030854D01*
X144043100Y-131093103D01*
X144305833Y-131104310D01*
X144565704Y-131064045D01*
X144812726Y-130973855D01*
X144913563Y-130919957D01*
X144973024Y-130686189D01*
X144231360Y-129944525D01*
X143489696Y-130686189D01*
X139613272Y-130686189D01*
X139613272Y-129934600D01*
X139603896Y-129839393D01*
X142891970Y-129839393D01*
X142932235Y-130099264D01*
X143022425Y-130346286D01*
X143076323Y-130447123D01*
X143310091Y-130506584D01*
X144051755Y-129764920D01*
X144410965Y-129764920D01*
X145152629Y-130506584D01*
X145386397Y-130447123D01*
X145497294Y-130208678D01*
X145559543Y-129953180D01*
X145570750Y-129690447D01*
X145530485Y-129430576D01*
X145440295Y-129183554D01*
X145386397Y-129082717D01*
X145152629Y-129023256D01*
X144410965Y-129764920D01*
X144051755Y-129764920D01*
X143310091Y-129023256D01*
X143076323Y-129082717D01*
X142965426Y-129321162D01*
X142903177Y-129576660D01*
X142891970Y-129839393D01*
X139603896Y-129839393D01*
X139601012Y-129810118D01*
X139564702Y-129690420D01*
X139505737Y-129580106D01*
X139426385Y-129483415D01*
X139329694Y-129404063D01*
X139219380Y-129345098D01*
X139099682Y-129308788D01*
X138975200Y-129296528D01*
X137275200Y-129296528D01*
X137150718Y-129308788D01*
X137031020Y-129345098D01*
X136920706Y-129404063D01*
X136824015Y-129483415D01*
X136744663Y-129580106D01*
X136685698Y-129690420D01*
X136649388Y-129810118D01*
X136637128Y-129934600D01*
X136637128Y-129999600D01*
X135656357Y-129999600D01*
X135481200Y-129824443D01*
X135481200Y-128843651D01*
X143489696Y-128843651D01*
X144231360Y-129585315D01*
X144973024Y-128843651D01*
X144913563Y-128609883D01*
X144675118Y-128498986D01*
X144419620Y-128436737D01*
X144156887Y-128425530D01*
X143897016Y-128465795D01*
X143649994Y-128555985D01*
X143549157Y-128609883D01*
X143489696Y-128843651D01*
X135481200Y-128843651D01*
X135481200Y-128648394D01*
X135541472Y-128616178D01*
X135622971Y-128561722D01*
X135719662Y-128482370D01*
X135788970Y-128413062D01*
X135868322Y-128316371D01*
X135922778Y-128234872D01*
X135981744Y-128124555D01*
X136019253Y-128033999D01*
X136055562Y-127914303D01*
X136074684Y-127818170D01*
X136086944Y-127693689D01*
X136086944Y-127669130D01*
X136089352Y-127644680D01*
X136089352Y-127370793D01*
X136102559Y-127354700D01*
X137658107Y-127354700D01*
X137706100Y-127359427D01*
X137897625Y-127340563D01*
X137924327Y-127332463D01*
X138081791Y-127284697D01*
X138251518Y-127193976D01*
X138400286Y-127071886D01*
X138414472Y-127054600D01*
X138651672Y-127054600D01*
X138937025Y-126997840D01*
X139205822Y-126886501D01*
X139447733Y-126724861D01*
X139653461Y-126519133D01*
X139815101Y-126277222D01*
X139926440Y-126008425D01*
X139983200Y-125723072D01*
X139983200Y-125432128D01*
X139926440Y-125146775D01*
X139815101Y-124877978D01*
X139653461Y-124636067D01*
X139447733Y-124430339D01*
X139205822Y-124268699D01*
X138937025Y-124157360D01*
X138651672Y-124100600D01*
X138360728Y-124100600D01*
X138075375Y-124157360D01*
X137806578Y-124268699D01*
X137564667Y-124430339D01*
X137358939Y-124636067D01*
X137197299Y-124877978D01*
X137085960Y-125146775D01*
X137035451Y-125400700D01*
X136282281Y-125400700D01*
X136282281Y-125044680D01*
X136279873Y-125020231D01*
X136279873Y-124995671D01*
X136263906Y-124833551D01*
X136244784Y-124737418D01*
X136197496Y-124581531D01*
X136159987Y-124490975D01*
X136083193Y-124347302D01*
X136028737Y-124265803D01*
X135925391Y-124139877D01*
X135856083Y-124070569D01*
X135813733Y-124035813D01*
X140249809Y-119599737D01*
X158856200Y-119599737D01*
X158856200Y-119813463D01*
X158897896Y-120023083D01*
X158979685Y-120220540D01*
X159098425Y-120398247D01*
X159249553Y-120549375D01*
X159427260Y-120668115D01*
X159624717Y-120749904D01*
X159834337Y-120791600D01*
X160048063Y-120791600D01*
X160257683Y-120749904D01*
X160455140Y-120668115D01*
X160632847Y-120549375D01*
X160783975Y-120398247D01*
X160902715Y-120220540D01*
X160984504Y-120023083D01*
X161026200Y-119813463D01*
X161026200Y-119599737D01*
X160984504Y-119390117D01*
X160902715Y-119192660D01*
X160783975Y-119014953D01*
X160632847Y-118863825D01*
X160455140Y-118745085D01*
X160257683Y-118663296D01*
X160048063Y-118621600D01*
X159834337Y-118621600D01*
X159624717Y-118663296D01*
X159427260Y-118745085D01*
X159249553Y-118863825D01*
X159098425Y-119014953D01*
X158979685Y-119192660D01*
X158897896Y-119390117D01*
X158856200Y-119599737D01*
X140249809Y-119599737D01*
X144878108Y-114971439D01*
X144915386Y-114940846D01*
X145037476Y-114792078D01*
X145128197Y-114622351D01*
X145184063Y-114438185D01*
X145198200Y-114294653D01*
X145202927Y-114246660D01*
X145198200Y-114198667D01*
X145198200Y-112799737D01*
X158856200Y-112799737D01*
X158856200Y-113013463D01*
X158897896Y-113223083D01*
X158979685Y-113420540D01*
X159098425Y-113598247D01*
X159249553Y-113749375D01*
X159427260Y-113868115D01*
X159624717Y-113949904D01*
X159834337Y-113991600D01*
X160048063Y-113991600D01*
X160257683Y-113949904D01*
X160455140Y-113868115D01*
X160632847Y-113749375D01*
X160783975Y-113598247D01*
X160902715Y-113420540D01*
X160984504Y-113223083D01*
X161026200Y-113013463D01*
X161026200Y-112799737D01*
X160984504Y-112590117D01*
X160902715Y-112392660D01*
X160783975Y-112214953D01*
X160632847Y-112063825D01*
X160455140Y-111945085D01*
X160257683Y-111863296D01*
X160048063Y-111821600D01*
X159834337Y-111821600D01*
X159624717Y-111863296D01*
X159427260Y-111945085D01*
X159249553Y-112063825D01*
X159098425Y-112214953D01*
X158979685Y-112392660D01*
X158897896Y-112590117D01*
X158856200Y-112799737D01*
X145198200Y-112799737D01*
X145198200Y-107821286D01*
X149293686Y-103725801D01*
X149363578Y-103772501D01*
X149632375Y-103883840D01*
X149917728Y-103940600D01*
X150208672Y-103940600D01*
X150494025Y-103883840D01*
X150665660Y-103812747D01*
X154174200Y-107321287D01*
X154174200Y-107562072D01*
X154230960Y-107847425D01*
X154342299Y-108116222D01*
X154503939Y-108358133D01*
X154709667Y-108563861D01*
X154951578Y-108725501D01*
X155220375Y-108836840D01*
X155505728Y-108893600D01*
X155796672Y-108893600D01*
X156082025Y-108836840D01*
X156350822Y-108725501D01*
X156592733Y-108563861D01*
X156798461Y-108358133D01*
X156960101Y-108116222D01*
X157071440Y-107847425D01*
X157128200Y-107562072D01*
X157128200Y-107271128D01*
X157071440Y-106985775D01*
X156960101Y-106716978D01*
X156798461Y-106475067D01*
X156592733Y-106269339D01*
X156350822Y-106107699D01*
X156082025Y-105996360D01*
X155796672Y-105939600D01*
X155555887Y-105939600D01*
X151355663Y-101739377D01*
X151210461Y-101522067D01*
X151004733Y-101316339D01*
X150762822Y-101154699D01*
X150494025Y-101043360D01*
X150208672Y-100986600D01*
X149917728Y-100986600D01*
X149632375Y-101043360D01*
X149363578Y-101154699D01*
X149121667Y-101316339D01*
X149044498Y-101393508D01*
X148925509Y-101429603D01*
X148755782Y-101520324D01*
X148607014Y-101642414D01*
X148576421Y-101679693D01*
X144221200Y-106034913D01*
X140919721Y-102733434D01*
X141626360Y-102733434D01*
X141626360Y-102996406D01*
X141677664Y-103254325D01*
X141778299Y-103497279D01*
X141924398Y-103715933D01*
X142110347Y-103901882D01*
X142329001Y-104047981D01*
X142571955Y-104148616D01*
X142829874Y-104199920D01*
X143092846Y-104199920D01*
X143350765Y-104148616D01*
X143593719Y-104047981D01*
X143812373Y-103901882D01*
X143998322Y-103715933D01*
X144144421Y-103497279D01*
X144231360Y-103287390D01*
X144318299Y-103497279D01*
X144464398Y-103715933D01*
X144650347Y-103901882D01*
X144869001Y-104047981D01*
X145111955Y-104148616D01*
X145369874Y-104199920D01*
X145632846Y-104199920D01*
X145890765Y-104148616D01*
X146133719Y-104047981D01*
X146352373Y-103901882D01*
X146538322Y-103715933D01*
X146684421Y-103497279D01*
X146785056Y-103254325D01*
X146836360Y-102996406D01*
X146836360Y-102733434D01*
X146785056Y-102475515D01*
X146684421Y-102232561D01*
X146538322Y-102013907D01*
X146352373Y-101827958D01*
X146133719Y-101681859D01*
X145890765Y-101581224D01*
X145632846Y-101529920D01*
X145369874Y-101529920D01*
X145111955Y-101581224D01*
X144869001Y-101681859D01*
X144650347Y-101827958D01*
X144464398Y-102013907D01*
X144318299Y-102232561D01*
X144231360Y-102442450D01*
X144144421Y-102232561D01*
X143998322Y-102013907D01*
X143812373Y-101827958D01*
X143593719Y-101681859D01*
X143350765Y-101581224D01*
X143092846Y-101529920D01*
X142829874Y-101529920D01*
X142571955Y-101581224D01*
X142329001Y-101681859D01*
X142110347Y-101827958D01*
X141924398Y-102013907D01*
X141778299Y-102232561D01*
X141677664Y-102475515D01*
X141626360Y-102733434D01*
X140919721Y-102733434D01*
X139865984Y-101679698D01*
X139835386Y-101642414D01*
X139686618Y-101520324D01*
X139562533Y-101453999D01*
X139394393Y-101285859D01*
X139152482Y-101124219D01*
X138883685Y-101012880D01*
X138598332Y-100956120D01*
X138307388Y-100956120D01*
X138022035Y-101012880D01*
X137753238Y-101124219D01*
X137511327Y-101285859D01*
X137305599Y-101491587D01*
X137238579Y-101591889D01*
X137177014Y-101642414D01*
X137146421Y-101679693D01*
X132886514Y-105939600D01*
X132645728Y-105939600D01*
X132360375Y-105996360D01*
X132091578Y-106107699D01*
X131849667Y-106269339D01*
X131643939Y-106475067D01*
X131482299Y-106716978D01*
X131370960Y-106985775D01*
X131314200Y-107271128D01*
X128382379Y-107271128D01*
X129171944Y-105995938D01*
X130187334Y-104651344D01*
X131322456Y-103406174D01*
X132567626Y-102271052D01*
X133912220Y-101255662D01*
X135344766Y-100368667D01*
X136853043Y-99617634D01*
X138424183Y-99008972D01*
X140044781Y-98547872D01*
X141701010Y-98238269D01*
X143378741Y-98082804D01*
X145063659Y-98082804D01*
X146741390Y-98238269D01*
G37*
X146741390Y-98238269D02*
X148397619Y-98547872D01*
X150018217Y-99008972D01*
X151589357Y-99617634D01*
X153097634Y-100368667D01*
X154530180Y-101255662D01*
X155874774Y-102271052D01*
X157119944Y-103406174D01*
X158255066Y-104651344D01*
X159270456Y-105995938D01*
X160157451Y-107428484D01*
X160908484Y-108936761D01*
X161517146Y-110507901D01*
X161978246Y-112128499D01*
X162287849Y-113784728D01*
X162443314Y-115462459D01*
X162443314Y-117147377D01*
X162287849Y-118825108D01*
X161978246Y-120481337D01*
X161517146Y-122101935D01*
X160908484Y-123673075D01*
X160157451Y-125181352D01*
X159270456Y-126613898D01*
X158255066Y-127958492D01*
X157119944Y-129203662D01*
X155874774Y-130338784D01*
X154530180Y-131354174D01*
X153097634Y-132241169D01*
X151589357Y-132992202D01*
X150018217Y-133600864D01*
X148397619Y-134061964D01*
X146741390Y-134371567D01*
X145063659Y-134527032D01*
X143378741Y-134527032D01*
X141701010Y-134371567D01*
X140044781Y-134061964D01*
X138424183Y-133600864D01*
X136853043Y-132992202D01*
X135344766Y-132241169D01*
X133912220Y-131354174D01*
X132567626Y-130338784D01*
X131322456Y-129203662D01*
X130187334Y-127958492D01*
X129171944Y-126613898D01*
X128284949Y-125181352D01*
X127533916Y-123673075D01*
X127083471Y-122510340D01*
X128766200Y-122510340D01*
X128766200Y-122802860D01*
X128823268Y-123089758D01*
X128935210Y-123360011D01*
X129097725Y-123603232D01*
X129304568Y-123810075D01*
X129547789Y-123972590D01*
X129818042Y-124084532D01*
X130104940Y-124141600D01*
X130397460Y-124141600D01*
X130684358Y-124084532D01*
X130954611Y-123972590D01*
X131197832Y-123810075D01*
X131404675Y-123603232D01*
X131567190Y-123360011D01*
X131679132Y-123089758D01*
X131736200Y-122802860D01*
X131736200Y-122510340D01*
X131679132Y-122223442D01*
X131567190Y-121953189D01*
X131404675Y-121709968D01*
X131197832Y-121503125D01*
X131015666Y-121381405D01*
X131132555Y-121311778D01*
X131348788Y-121116869D01*
X131522841Y-120883520D01*
X131648025Y-120620699D01*
X131692676Y-120473490D01*
X131571355Y-120243600D01*
X130378200Y-120243600D01*
X130378200Y-120263600D01*
X130124200Y-120263600D01*
X130124200Y-120243600D01*
X128931045Y-120243600D01*
X128809724Y-120473490D01*
X128854375Y-120620699D01*
X128979559Y-120883520D01*
X129153612Y-121116869D01*
X129369845Y-121311778D01*
X129486734Y-121381405D01*
X129304568Y-121503125D01*
X129097725Y-121709968D01*
X128935210Y-121953189D01*
X128823268Y-122223442D01*
X128766200Y-122510340D01*
X127083471Y-122510340D01*
X126925254Y-122101935D01*
X126464154Y-120481337D01*
X126154551Y-118825108D01*
X125999086Y-117147377D01*
X125999086Y-115462459D01*
X126117311Y-114186600D01*
X128763128Y-114186600D01*
X128763128Y-115886600D01*
X128775388Y-116011082D01*
X128811698Y-116130780D01*
X128870663Y-116241094D01*
X128950015Y-116337785D01*
X129046706Y-116417137D01*
X129157020Y-116476102D01*
X129229580Y-116498113D01*
X129097725Y-116629968D01*
X128935210Y-116873189D01*
X128823268Y-117143442D01*
X128766200Y-117430340D01*
X128766200Y-117722860D01*
X128823268Y-118009758D01*
X128935210Y-118280011D01*
X129097725Y-118523232D01*
X129304568Y-118730075D01*
X129486734Y-118851795D01*
X129369845Y-118921422D01*
X129153612Y-119116331D01*
X128979559Y-119349680D01*
X128854375Y-119612501D01*
X128809724Y-119759710D01*
X128931045Y-119989600D01*
X130124200Y-119989600D01*
X130124200Y-119969600D01*
X130378200Y-119969600D01*
X130378200Y-119989600D01*
X131571355Y-119989600D01*
X131692676Y-119759710D01*
X131648025Y-119612501D01*
X131522841Y-119349680D01*
X131348788Y-119116331D01*
X131132555Y-118921422D01*
X131015666Y-118851795D01*
X131197832Y-118730075D01*
X131404675Y-118523232D01*
X131567190Y-118280011D01*
X131679132Y-118009758D01*
X131736200Y-117722860D01*
X131736200Y-117430340D01*
X131679132Y-117143442D01*
X131567190Y-116873189D01*
X131404675Y-116629968D01*
X131272820Y-116498113D01*
X131345380Y-116476102D01*
X131455694Y-116417137D01*
X131552385Y-116337785D01*
X131631737Y-116241094D01*
X131690702Y-116130780D01*
X131727012Y-116011082D01*
X131739272Y-115886600D01*
X131739272Y-114186600D01*
X131727012Y-114062118D01*
X131690702Y-113942420D01*
X131631737Y-113832106D01*
X131552385Y-113735415D01*
X131455694Y-113656063D01*
X131345380Y-113597098D01*
X131225682Y-113560788D01*
X131101200Y-113548528D01*
X129401200Y-113548528D01*
X129276718Y-113560788D01*
X129157020Y-113597098D01*
X129046706Y-113656063D01*
X128950015Y-113735415D01*
X128870663Y-113832106D01*
X128811698Y-113942420D01*
X128775388Y-114062118D01*
X128763128Y-114186600D01*
X126117311Y-114186600D01*
X126154551Y-113784728D01*
X126464154Y-112128499D01*
X126925254Y-110507901D01*
X127533916Y-108936761D01*
X128284949Y-107428484D01*
X128382379Y-107271128D01*
X131314200Y-107271128D01*
X131314200Y-107562072D01*
X131370960Y-107847425D01*
X131482299Y-108116222D01*
X131643939Y-108358133D01*
X131849667Y-108563861D01*
X132091578Y-108725501D01*
X132360375Y-108836840D01*
X132645728Y-108893600D01*
X132936672Y-108893600D01*
X133222025Y-108836840D01*
X133490822Y-108725501D01*
X133732733Y-108563861D01*
X133938461Y-108358133D01*
X134100101Y-108116222D01*
X134211440Y-107847425D01*
X134268200Y-107562072D01*
X134268200Y-107321286D01*
X137819867Y-103769620D01*
X138022035Y-103853360D01*
X138307388Y-103910120D01*
X138598332Y-103910120D01*
X138883685Y-103853360D01*
X139152482Y-103742021D01*
X139159947Y-103737033D01*
X143244200Y-107821287D01*
X143244201Y-113841972D01*
X134044378Y-123041796D01*
X134007094Y-123072394D01*
X133885004Y-123221162D01*
X133810788Y-123360011D01*
X133794283Y-123390890D01*
X133738417Y-123575055D01*
X133719553Y-123766580D01*
X133724280Y-123814574D01*
X133724280Y-123932560D01*
X133672403Y-123967223D01*
X133546477Y-124070569D01*
X133477169Y-124139877D01*
X133373823Y-124265803D01*
X133319367Y-124347302D01*
X133242573Y-124490975D01*
X133205064Y-124581531D01*
X133157776Y-124737418D01*
X133138654Y-124833551D01*
X133122687Y-124995671D01*
X133122687Y-125020231D01*
X133120279Y-125044680D01*
X133120279Y-125594680D01*
X133132590Y-125719680D01*
X133120279Y-125844680D01*
X133120279Y-126844680D01*
X133136246Y-127006800D01*
X133183535Y-127162690D01*
X133260328Y-127306359D01*
X133313208Y-127370793D01*
X133313208Y-127644680D01*
X133315616Y-127669130D01*
X133315616Y-127693689D01*
X133327876Y-127818170D01*
X133346998Y-127914303D01*
X133383307Y-128033999D01*
X133420816Y-128124555D01*
X133479782Y-128234872D01*
X133534238Y-128316371D01*
X133613590Y-128413062D01*
X133682898Y-128482370D01*
X133779589Y-128561722D01*
X133861088Y-128616178D01*
X133911201Y-128642964D01*
X133911200Y-130111047D01*
X133907403Y-130149600D01*
X133911200Y-130188153D01*
X133911200Y-130188160D01*
X133922559Y-130303486D01*
X133967446Y-130451459D01*
X134040338Y-130587832D01*
X134138436Y-130707364D01*
X134168390Y-130731947D01*
X134748853Y-131312410D01*
X134773436Y-131342364D01*
X134892967Y-131440462D01*
X135029340Y-131513354D01*
X135177313Y-131558242D01*
X135252226Y-131565620D01*
X135292639Y-131569600D01*
X135292644Y-131569600D01*
X135331200Y-131573397D01*
X135369756Y-131569600D01*
X136637128Y-131569600D01*
X136637128Y-131634600D01*
X136649388Y-131759082D01*
X136685698Y-131878780D01*
X136744663Y-131989094D01*
X136824015Y-132085785D01*
X136920706Y-132165137D01*
X137031020Y-132224102D01*
X137150718Y-132260412D01*
X137275200Y-132272672D01*
X138975200Y-132272672D01*
X139099682Y-132260412D01*
X139219380Y-132224102D01*
X139329694Y-132165137D01*
X139426385Y-132085785D01*
X139505737Y-131989094D01*
X139564702Y-131878780D01*
X139601012Y-131759082D01*
X139613272Y-131634600D01*
X139613272Y-130686189D01*
X143489696Y-130686189D01*
X143549157Y-130919957D01*
X143787602Y-131030854D01*
X144043100Y-131093103D01*
X144305833Y-131104310D01*
X144565704Y-131064045D01*
X144812726Y-130973855D01*
X144913563Y-130919957D01*
X144973024Y-130686189D01*
X144231360Y-129944525D01*
X143489696Y-130686189D01*
X139613272Y-130686189D01*
X139613272Y-129934600D01*
X139603896Y-129839393D01*
X142891970Y-129839393D01*
X142932235Y-130099264D01*
X143022425Y-130346286D01*
X143076323Y-130447123D01*
X143310091Y-130506584D01*
X144051755Y-129764920D01*
X144410965Y-129764920D01*
X145152629Y-130506584D01*
X145386397Y-130447123D01*
X145497294Y-130208678D01*
X145559543Y-129953180D01*
X145570750Y-129690447D01*
X145530485Y-129430576D01*
X145440295Y-129183554D01*
X145386397Y-129082717D01*
X145152629Y-129023256D01*
X144410965Y-129764920D01*
X144051755Y-129764920D01*
X143310091Y-129023256D01*
X143076323Y-129082717D01*
X142965426Y-129321162D01*
X142903177Y-129576660D01*
X142891970Y-129839393D01*
X139603896Y-129839393D01*
X139601012Y-129810118D01*
X139564702Y-129690420D01*
X139505737Y-129580106D01*
X139426385Y-129483415D01*
X139329694Y-129404063D01*
X139219380Y-129345098D01*
X139099682Y-129308788D01*
X138975200Y-129296528D01*
X137275200Y-129296528D01*
X137150718Y-129308788D01*
X137031020Y-129345098D01*
X136920706Y-129404063D01*
X136824015Y-129483415D01*
X136744663Y-129580106D01*
X136685698Y-129690420D01*
X136649388Y-129810118D01*
X136637128Y-129934600D01*
X136637128Y-129999600D01*
X135656357Y-129999600D01*
X135481200Y-129824443D01*
X135481200Y-128843651D01*
X143489696Y-128843651D01*
X144231360Y-129585315D01*
X144973024Y-128843651D01*
X144913563Y-128609883D01*
X144675118Y-128498986D01*
X144419620Y-128436737D01*
X144156887Y-128425530D01*
X143897016Y-128465795D01*
X143649994Y-128555985D01*
X143549157Y-128609883D01*
X143489696Y-128843651D01*
X135481200Y-128843651D01*
X135481200Y-128648394D01*
X135541472Y-128616178D01*
X135622971Y-128561722D01*
X135719662Y-128482370D01*
X135788970Y-128413062D01*
X135868322Y-128316371D01*
X135922778Y-128234872D01*
X135981744Y-128124555D01*
X136019253Y-128033999D01*
X136055562Y-127914303D01*
X136074684Y-127818170D01*
X136086944Y-127693689D01*
X136086944Y-127669130D01*
X136089352Y-127644680D01*
X136089352Y-127370793D01*
X136102559Y-127354700D01*
X137658107Y-127354700D01*
X137706100Y-127359427D01*
X137897625Y-127340563D01*
X137924327Y-127332463D01*
X138081791Y-127284697D01*
X138251518Y-127193976D01*
X138400286Y-127071886D01*
X138414472Y-127054600D01*
X138651672Y-127054600D01*
X138937025Y-126997840D01*
X139205822Y-126886501D01*
X139447733Y-126724861D01*
X139653461Y-126519133D01*
X139815101Y-126277222D01*
X139926440Y-126008425D01*
X139983200Y-125723072D01*
X139983200Y-125432128D01*
X139926440Y-125146775D01*
X139815101Y-124877978D01*
X139653461Y-124636067D01*
X139447733Y-124430339D01*
X139205822Y-124268699D01*
X138937025Y-124157360D01*
X138651672Y-124100600D01*
X138360728Y-124100600D01*
X138075375Y-124157360D01*
X137806578Y-124268699D01*
X137564667Y-124430339D01*
X137358939Y-124636067D01*
X137197299Y-124877978D01*
X137085960Y-125146775D01*
X137035451Y-125400700D01*
X136282281Y-125400700D01*
X136282281Y-125044680D01*
X136279873Y-125020231D01*
X136279873Y-124995671D01*
X136263906Y-124833551D01*
X136244784Y-124737418D01*
X136197496Y-124581531D01*
X136159987Y-124490975D01*
X136083193Y-124347302D01*
X136028737Y-124265803D01*
X135925391Y-124139877D01*
X135856083Y-124070569D01*
X135813733Y-124035813D01*
X140249809Y-119599737D01*
X158856200Y-119599737D01*
X158856200Y-119813463D01*
X158897896Y-120023083D01*
X158979685Y-120220540D01*
X159098425Y-120398247D01*
X159249553Y-120549375D01*
X159427260Y-120668115D01*
X159624717Y-120749904D01*
X159834337Y-120791600D01*
X160048063Y-120791600D01*
X160257683Y-120749904D01*
X160455140Y-120668115D01*
X160632847Y-120549375D01*
X160783975Y-120398247D01*
X160902715Y-120220540D01*
X160984504Y-120023083D01*
X161026200Y-119813463D01*
X161026200Y-119599737D01*
X160984504Y-119390117D01*
X160902715Y-119192660D01*
X160783975Y-119014953D01*
X160632847Y-118863825D01*
X160455140Y-118745085D01*
X160257683Y-118663296D01*
X160048063Y-118621600D01*
X159834337Y-118621600D01*
X159624717Y-118663296D01*
X159427260Y-118745085D01*
X159249553Y-118863825D01*
X159098425Y-119014953D01*
X158979685Y-119192660D01*
X158897896Y-119390117D01*
X158856200Y-119599737D01*
X140249809Y-119599737D01*
X144878108Y-114971439D01*
X144915386Y-114940846D01*
X145037476Y-114792078D01*
X145128197Y-114622351D01*
X145184063Y-114438185D01*
X145198200Y-114294653D01*
X145202927Y-114246660D01*
X145198200Y-114198667D01*
X145198200Y-112799737D01*
X158856200Y-112799737D01*
X158856200Y-113013463D01*
X158897896Y-113223083D01*
X158979685Y-113420540D01*
X159098425Y-113598247D01*
X159249553Y-113749375D01*
X159427260Y-113868115D01*
X159624717Y-113949904D01*
X159834337Y-113991600D01*
X160048063Y-113991600D01*
X160257683Y-113949904D01*
X160455140Y-113868115D01*
X160632847Y-113749375D01*
X160783975Y-113598247D01*
X160902715Y-113420540D01*
X160984504Y-113223083D01*
X161026200Y-113013463D01*
X161026200Y-112799737D01*
X160984504Y-112590117D01*
X160902715Y-112392660D01*
X160783975Y-112214953D01*
X160632847Y-112063825D01*
X160455140Y-111945085D01*
X160257683Y-111863296D01*
X160048063Y-111821600D01*
X159834337Y-111821600D01*
X159624717Y-111863296D01*
X159427260Y-111945085D01*
X159249553Y-112063825D01*
X159098425Y-112214953D01*
X158979685Y-112392660D01*
X158897896Y-112590117D01*
X158856200Y-112799737D01*
X145198200Y-112799737D01*
X145198200Y-107821286D01*
X149293686Y-103725801D01*
X149363578Y-103772501D01*
X149632375Y-103883840D01*
X149917728Y-103940600D01*
X150208672Y-103940600D01*
X150494025Y-103883840D01*
X150665660Y-103812747D01*
X154174200Y-107321287D01*
X154174200Y-107562072D01*
X154230960Y-107847425D01*
X154342299Y-108116222D01*
X154503939Y-108358133D01*
X154709667Y-108563861D01*
X154951578Y-108725501D01*
X155220375Y-108836840D01*
X155505728Y-108893600D01*
X155796672Y-108893600D01*
X156082025Y-108836840D01*
X156350822Y-108725501D01*
X156592733Y-108563861D01*
X156798461Y-108358133D01*
X156960101Y-108116222D01*
X157071440Y-107847425D01*
X157128200Y-107562072D01*
X157128200Y-107271128D01*
X157071440Y-106985775D01*
X156960101Y-106716978D01*
X156798461Y-106475067D01*
X156592733Y-106269339D01*
X156350822Y-106107699D01*
X156082025Y-105996360D01*
X155796672Y-105939600D01*
X155555887Y-105939600D01*
X151355663Y-101739377D01*
X151210461Y-101522067D01*
X151004733Y-101316339D01*
X150762822Y-101154699D01*
X150494025Y-101043360D01*
X150208672Y-100986600D01*
X149917728Y-100986600D01*
X149632375Y-101043360D01*
X149363578Y-101154699D01*
X149121667Y-101316339D01*
X149044498Y-101393508D01*
X148925509Y-101429603D01*
X148755782Y-101520324D01*
X148607014Y-101642414D01*
X148576421Y-101679693D01*
X144221200Y-106034913D01*
X140919721Y-102733434D01*
X141626360Y-102733434D01*
X141626360Y-102996406D01*
X141677664Y-103254325D01*
X141778299Y-103497279D01*
X141924398Y-103715933D01*
X142110347Y-103901882D01*
X142329001Y-104047981D01*
X142571955Y-104148616D01*
X142829874Y-104199920D01*
X143092846Y-104199920D01*
X143350765Y-104148616D01*
X143593719Y-104047981D01*
X143812373Y-103901882D01*
X143998322Y-103715933D01*
X144144421Y-103497279D01*
X144231360Y-103287390D01*
X144318299Y-103497279D01*
X144464398Y-103715933D01*
X144650347Y-103901882D01*
X144869001Y-104047981D01*
X145111955Y-104148616D01*
X145369874Y-104199920D01*
X145632846Y-104199920D01*
X145890765Y-104148616D01*
X146133719Y-104047981D01*
X146352373Y-103901882D01*
X146538322Y-103715933D01*
X146684421Y-103497279D01*
X146785056Y-103254325D01*
X146836360Y-102996406D01*
X146836360Y-102733434D01*
X146785056Y-102475515D01*
X146684421Y-102232561D01*
X146538322Y-102013907D01*
X146352373Y-101827958D01*
X146133719Y-101681859D01*
X145890765Y-101581224D01*
X145632846Y-101529920D01*
X145369874Y-101529920D01*
X145111955Y-101581224D01*
X144869001Y-101681859D01*
X144650347Y-101827958D01*
X144464398Y-102013907D01*
X144318299Y-102232561D01*
X144231360Y-102442450D01*
X144144421Y-102232561D01*
X143998322Y-102013907D01*
X143812373Y-101827958D01*
X143593719Y-101681859D01*
X143350765Y-101581224D01*
X143092846Y-101529920D01*
X142829874Y-101529920D01*
X142571955Y-101581224D01*
X142329001Y-101681859D01*
X142110347Y-101827958D01*
X141924398Y-102013907D01*
X141778299Y-102232561D01*
X141677664Y-102475515D01*
X141626360Y-102733434D01*
X140919721Y-102733434D01*
X139865984Y-101679698D01*
X139835386Y-101642414D01*
X139686618Y-101520324D01*
X139562533Y-101453999D01*
X139394393Y-101285859D01*
X139152482Y-101124219D01*
X138883685Y-101012880D01*
X138598332Y-100956120D01*
X138307388Y-100956120D01*
X138022035Y-101012880D01*
X137753238Y-101124219D01*
X137511327Y-101285859D01*
X137305599Y-101491587D01*
X137238579Y-101591889D01*
X137177014Y-101642414D01*
X137146421Y-101679693D01*
X132886514Y-105939600D01*
X132645728Y-105939600D01*
X132360375Y-105996360D01*
X132091578Y-106107699D01*
X131849667Y-106269339D01*
X131643939Y-106475067D01*
X131482299Y-106716978D01*
X131370960Y-106985775D01*
X131314200Y-107271128D01*
X128382379Y-107271128D01*
X129171944Y-105995938D01*
X130187334Y-104651344D01*
X131322456Y-103406174D01*
X132567626Y-102271052D01*
X133912220Y-101255662D01*
X135344766Y-100368667D01*
X136853043Y-99617634D01*
X138424183Y-99008972D01*
X140044781Y-98547872D01*
X141701010Y-98238269D01*
X143378741Y-98082804D01*
X145063659Y-98082804D01*
X146741390Y-98238269D01*
M02*
