G04 #@! TF.GenerationSoftware,KiCad,Pcbnew,(5.1.6)-1*
G04 #@! TF.CreationDate,2020-10-21T14:23:11+02:00*
G04 #@! TF.ProjectId,Stimmungslicht,5374696d-6d75-46e6-9773-6c696368742e,rev?*
G04 #@! TF.SameCoordinates,Original*
G04 #@! TF.FileFunction,Copper,L1,Top*
G04 #@! TF.FilePolarity,Positive*
%FSLAX46Y46*%
G04 Gerber Fmt 4.6, Leading zero omitted, Abs format (unit mm)*
G04 Created by KiCad (PCBNEW (5.1.6)-1) date 2020-10-21 14:23:11*
%MOMM*%
%LPD*%
G01*
G04 APERTURE LIST*
G04 #@! TA.AperFunction,EtchedComponent*
%ADD10C,2.500000*%
G04 #@! TD*
G04 #@! TA.AperFunction,SMDPad,CuDef*
%ADD11R,2.500000X1.200000*%
G04 #@! TD*
G04 #@! TA.AperFunction,ComponentPad*
%ADD12C,1.300000*%
G04 #@! TD*
G04 #@! TA.AperFunction,ComponentPad*
%ADD13C,1.400000*%
G04 #@! TD*
G04 #@! TA.AperFunction,SMDPad,CuDef*
%ADD14R,1.525000X0.650000*%
G04 #@! TD*
G04 #@! TA.AperFunction,ComponentPad*
%ADD15R,1.700000X1.700000*%
G04 #@! TD*
G04 #@! TA.AperFunction,SMDPad,CuDef*
%ADD16R,1.500000X2.600000*%
G04 #@! TD*
G04 #@! TA.AperFunction,ComponentPad*
%ADD17O,1.700000X1.700000*%
G04 #@! TD*
G04 #@! TA.AperFunction,ViaPad*
%ADD18C,1.300000*%
G04 #@! TD*
G04 #@! TA.AperFunction,Conductor*
%ADD19C,0.300000*%
G04 #@! TD*
G04 #@! TA.AperFunction,Conductor*
%ADD20C,0.500000*%
G04 #@! TD*
G04 #@! TA.AperFunction,Conductor*
%ADD21C,0.254000*%
G04 #@! TD*
G04 APERTURE END LIST*
D10*
X151363200Y-102463600D02*
G75*
G03*
X151363200Y-102463600I-1300000J0D01*
G01*
X134091200Y-107416600D02*
G75*
G03*
X134091200Y-107416600I-1300000J0D01*
G01*
X156951200Y-107416600D02*
G75*
G03*
X156951200Y-107416600I-1300000J0D01*
G01*
X139752860Y-102433120D02*
G75*
G03*
X139752860Y-102433120I-1300000J0D01*
G01*
D11*
X157191200Y-113806600D03*
X157191200Y-116306600D03*
X157191200Y-118806600D03*
D12*
X150063200Y-102463600D03*
X132791200Y-107416600D03*
X155651200Y-107416600D03*
X138452860Y-102433120D03*
D13*
X144231360Y-129764920D03*
X145501360Y-102864920D03*
X142961360Y-102864920D03*
G04 #@! TA.AperFunction,SMDPad,CuDef*
G36*
G01*
X136461200Y-115046600D02*
X136461200Y-116296600D01*
G75*
G02*
X136211200Y-116546600I-250000J0D01*
G01*
X135286200Y-116546600D01*
G75*
G02*
X135036200Y-116296600I0J250000D01*
G01*
X135036200Y-115046600D01*
G75*
G02*
X135286200Y-114796600I250000J0D01*
G01*
X136211200Y-114796600D01*
G75*
G02*
X136461200Y-115046600I0J-250000D01*
G01*
G37*
G04 #@! TD.AperFunction*
G04 #@! TA.AperFunction,SMDPad,CuDef*
G36*
G01*
X139436200Y-115046600D02*
X139436200Y-116296600D01*
G75*
G02*
X139186200Y-116546600I-250000J0D01*
G01*
X138261200Y-116546600D01*
G75*
G02*
X138011200Y-116296600I0J250000D01*
G01*
X138011200Y-115046600D01*
G75*
G02*
X138261200Y-114796600I250000J0D01*
G01*
X139186200Y-114796600D01*
G75*
G02*
X139436200Y-115046600I0J-250000D01*
G01*
G37*
G04 #@! TD.AperFunction*
G04 #@! TA.AperFunction,SMDPad,CuDef*
G36*
G01*
X136461200Y-112506600D02*
X136461200Y-113756600D01*
G75*
G02*
X136211200Y-114006600I-250000J0D01*
G01*
X135286200Y-114006600D01*
G75*
G02*
X135036200Y-113756600I0J250000D01*
G01*
X135036200Y-112506600D01*
G75*
G02*
X135286200Y-112256600I250000J0D01*
G01*
X136211200Y-112256600D01*
G75*
G02*
X136461200Y-112506600I0J-250000D01*
G01*
G37*
G04 #@! TD.AperFunction*
G04 #@! TA.AperFunction,SMDPad,CuDef*
G36*
G01*
X139436200Y-112506600D02*
X139436200Y-113756600D01*
G75*
G02*
X139186200Y-114006600I-250000J0D01*
G01*
X138261200Y-114006600D01*
G75*
G02*
X138011200Y-113756600I0J250000D01*
G01*
X138011200Y-112506600D01*
G75*
G02*
X138261200Y-112256600I250000J0D01*
G01*
X139186200Y-112256600D01*
G75*
G02*
X139436200Y-112506600I0J-250000D01*
G01*
G37*
G04 #@! TD.AperFunction*
D14*
X139313200Y-118211600D03*
X139313200Y-119481600D03*
X139313200Y-120751600D03*
X139313200Y-122021600D03*
X133889200Y-122021600D03*
X133889200Y-120751600D03*
X133889200Y-119481600D03*
X133889200Y-118211600D03*
D15*
X138125200Y-130784600D03*
D16*
X142721200Y-108686600D03*
X145721200Y-108686600D03*
X142719800Y-116306600D03*
X145719800Y-116306600D03*
X145721200Y-123926600D03*
X142721200Y-123926600D03*
G04 #@! TA.AperFunction,SMDPad,CuDef*
G36*
G01*
X148268700Y-111356600D02*
X147793700Y-111356600D01*
G75*
G02*
X147556200Y-111119100I0J237500D01*
G01*
X147556200Y-110544100D01*
G75*
G02*
X147793700Y-110306600I237500J0D01*
G01*
X148268700Y-110306600D01*
G75*
G02*
X148506200Y-110544100I0J-237500D01*
G01*
X148506200Y-111119100D01*
G75*
G02*
X148268700Y-111356600I-237500J0D01*
G01*
G37*
G04 #@! TD.AperFunction*
G04 #@! TA.AperFunction,SMDPad,CuDef*
G36*
G01*
X148268700Y-109606600D02*
X147793700Y-109606600D01*
G75*
G02*
X147556200Y-109369100I0J237500D01*
G01*
X147556200Y-108794100D01*
G75*
G02*
X147793700Y-108556600I237500J0D01*
G01*
X148268700Y-108556600D01*
G75*
G02*
X148506200Y-108794100I0J-237500D01*
G01*
X148506200Y-109369100D01*
G75*
G02*
X148268700Y-109606600I-237500J0D01*
G01*
G37*
G04 #@! TD.AperFunction*
G04 #@! TA.AperFunction,SMDPad,CuDef*
G36*
G01*
X147793700Y-115386600D02*
X148268700Y-115386600D01*
G75*
G02*
X148506200Y-115624100I0J-237500D01*
G01*
X148506200Y-116199100D01*
G75*
G02*
X148268700Y-116436600I-237500J0D01*
G01*
X147793700Y-116436600D01*
G75*
G02*
X147556200Y-116199100I0J237500D01*
G01*
X147556200Y-115624100D01*
G75*
G02*
X147793700Y-115386600I237500J0D01*
G01*
G37*
G04 #@! TD.AperFunction*
G04 #@! TA.AperFunction,SMDPad,CuDef*
G36*
G01*
X147793700Y-113636600D02*
X148268700Y-113636600D01*
G75*
G02*
X148506200Y-113874100I0J-237500D01*
G01*
X148506200Y-114449100D01*
G75*
G02*
X148268700Y-114686600I-237500J0D01*
G01*
X147793700Y-114686600D01*
G75*
G02*
X147556200Y-114449100I0J237500D01*
G01*
X147556200Y-113874100D01*
G75*
G02*
X147793700Y-113636600I237500J0D01*
G01*
G37*
G04 #@! TD.AperFunction*
G04 #@! TA.AperFunction,SMDPad,CuDef*
G36*
G01*
X147793700Y-121256600D02*
X148268700Y-121256600D01*
G75*
G02*
X148506200Y-121494100I0J-237500D01*
G01*
X148506200Y-122069100D01*
G75*
G02*
X148268700Y-122306600I-237500J0D01*
G01*
X147793700Y-122306600D01*
G75*
G02*
X147556200Y-122069100I0J237500D01*
G01*
X147556200Y-121494100D01*
G75*
G02*
X147793700Y-121256600I237500J0D01*
G01*
G37*
G04 #@! TD.AperFunction*
G04 #@! TA.AperFunction,SMDPad,CuDef*
G36*
G01*
X147793700Y-123006600D02*
X148268700Y-123006600D01*
G75*
G02*
X148506200Y-123244100I0J-237500D01*
G01*
X148506200Y-123819100D01*
G75*
G02*
X148268700Y-124056600I-237500J0D01*
G01*
X147793700Y-124056600D01*
G75*
G02*
X147556200Y-123819100I0J237500D01*
G01*
X147556200Y-123244100D01*
G75*
G02*
X147793700Y-123006600I237500J0D01*
G01*
G37*
G04 #@! TD.AperFunction*
G04 #@! TA.AperFunction,SMDPad,CuDef*
G36*
G01*
X140440420Y-126122920D02*
X139965420Y-126122920D01*
G75*
G02*
X139727920Y-125885420I0J237500D01*
G01*
X139727920Y-125310420D01*
G75*
G02*
X139965420Y-125072920I237500J0D01*
G01*
X140440420Y-125072920D01*
G75*
G02*
X140677920Y-125310420I0J-237500D01*
G01*
X140677920Y-125885420D01*
G75*
G02*
X140440420Y-126122920I-237500J0D01*
G01*
G37*
G04 #@! TD.AperFunction*
G04 #@! TA.AperFunction,SMDPad,CuDef*
G36*
G01*
X140440420Y-127872920D02*
X139965420Y-127872920D01*
G75*
G02*
X139727920Y-127635420I0J237500D01*
G01*
X139727920Y-127060420D01*
G75*
G02*
X139965420Y-126822920I237500J0D01*
G01*
X140440420Y-126822920D01*
G75*
G02*
X140677920Y-127060420I0J-237500D01*
G01*
X140677920Y-127635420D01*
G75*
G02*
X140440420Y-127872920I-237500J0D01*
G01*
G37*
G04 #@! TD.AperFunction*
D15*
X130251200Y-115036600D03*
D17*
X130251200Y-117576600D03*
X130251200Y-120116600D03*
X130251200Y-122656600D03*
D18*
X138506200Y-125577600D03*
D19*
X140411200Y-108686600D02*
X142721200Y-108686600D01*
X139141200Y-108686600D02*
X140411200Y-108686600D01*
X136911210Y-110916590D02*
X139141200Y-108686600D01*
X136911210Y-116586556D02*
X136911210Y-110916590D01*
X135286166Y-118211600D02*
X136911210Y-116586556D01*
X133889200Y-118211600D02*
X135286166Y-118211600D01*
X137511221Y-116922079D02*
X137511221Y-111586579D01*
X134951700Y-119481600D02*
X137511221Y-116922079D01*
X133889200Y-119481600D02*
X134951700Y-119481600D01*
X137511221Y-111586579D02*
X140136179Y-111586579D01*
X140136179Y-111586579D02*
X141046200Y-112496600D01*
X157191200Y-116306600D02*
X153111200Y-116306600D01*
X142961360Y-102864920D02*
X145501360Y-102864920D01*
X146201359Y-104874159D02*
X149301200Y-107974000D01*
X146201359Y-103564919D02*
X146201359Y-104874159D01*
X145501360Y-102864920D02*
X146201359Y-103564919D01*
X148031200Y-114161600D02*
X148031200Y-110831600D01*
X149392640Y-112496600D02*
X149494240Y-112598200D01*
X147640040Y-112496600D02*
X149392640Y-112496600D01*
X141046200Y-112496600D02*
X147640040Y-112496600D01*
X147640040Y-112496600D02*
X148031200Y-112496600D01*
X153111200Y-116306600D02*
X149494240Y-112598200D01*
X149494240Y-112598200D02*
X149301200Y-112496600D01*
X149301200Y-110036600D02*
X148506200Y-110831600D01*
X148506200Y-110831600D02*
X148031200Y-110831600D01*
X149301200Y-107974000D02*
X149301200Y-110036600D01*
D20*
X145389600Y-129844800D02*
X142849600Y-129844800D01*
D19*
X130886200Y-122021600D02*
X130251200Y-122656600D01*
X133889200Y-122021600D02*
X130886200Y-122021600D01*
X142316200Y-116710200D02*
X142719800Y-116306600D01*
X141046200Y-115671606D02*
X139141194Y-113766600D01*
X141046200Y-115683000D02*
X141669800Y-116306600D01*
X141669800Y-116306600D02*
X142719800Y-116306600D01*
X141046200Y-115671606D02*
X141046200Y-115683000D01*
X142719800Y-117906600D02*
X144472600Y-119659400D01*
X142719800Y-116306600D02*
X142719800Y-117906600D01*
X144472600Y-119659400D02*
X147391120Y-119659400D01*
X148031200Y-120299480D02*
X148031200Y-121781600D01*
X147391120Y-119659400D02*
X148031200Y-120299480D01*
X139313200Y-119481600D02*
X143357600Y-119481600D01*
X143357600Y-119481600D02*
X144053560Y-120177560D01*
X144053560Y-120177560D02*
X145069560Y-120177560D01*
X146673600Y-121781600D02*
X148031200Y-121781600D01*
X145069560Y-120177560D02*
X146673600Y-121781600D01*
X139313200Y-116261100D02*
X138723700Y-115671600D01*
X139313200Y-118211600D02*
X139313200Y-116261100D01*
X140925701Y-121016599D02*
X140925701Y-123865539D01*
X140660702Y-120751600D02*
X140925701Y-121016599D01*
X139313200Y-120751600D02*
X140660702Y-120751600D01*
X140202920Y-124588320D02*
X140202920Y-125597920D01*
X140925701Y-123865539D02*
X140202920Y-124588320D01*
X140202920Y-125597920D02*
X138526520Y-125597920D01*
X138526520Y-125597920D02*
X138506200Y-125577600D01*
X146116200Y-109081600D02*
X145721200Y-108686600D01*
X148031200Y-109081600D02*
X146116200Y-109081600D01*
X146114800Y-115911600D02*
X145719800Y-116306600D01*
X148031200Y-115911600D02*
X146114800Y-115911600D01*
X146116200Y-123531600D02*
X145721200Y-123926600D01*
X148031200Y-123531600D02*
X146116200Y-123531600D01*
X130251200Y-115036600D02*
X131521200Y-115036600D01*
X131521200Y-115036600D02*
X132156200Y-114401600D01*
X132156200Y-114401600D02*
X133426200Y-114401600D01*
X134696200Y-113131600D02*
X135606178Y-113131600D01*
X133426200Y-114401600D02*
X134696200Y-113131600D01*
X132156200Y-115671600D02*
X135606178Y-115671600D01*
X130251200Y-117576600D02*
X132156200Y-115671600D01*
X156326200Y-118806600D02*
X157191200Y-118806600D01*
X155016200Y-120116600D02*
X156326200Y-118806600D01*
X152913080Y-127934720D02*
X155016200Y-125831600D01*
X155016200Y-125831600D02*
X155016200Y-120116600D01*
X141264720Y-127934720D02*
X152913080Y-127934720D01*
X140677920Y-127347920D02*
X141264720Y-127934720D01*
X140202920Y-127347920D02*
X140677920Y-127347920D01*
X136982200Y-126273602D02*
X138056518Y-127347920D01*
X138056518Y-127347920D02*
X140202920Y-127347920D01*
X136982200Y-124307600D02*
X136982200Y-126273602D01*
X139268200Y-122021600D02*
X136982200Y-124307600D01*
X139313200Y-122021600D02*
X139268200Y-122021600D01*
D21*
G36*
X146741390Y-98238269D02*
G01*
X148397619Y-98547872D01*
X150018217Y-99008972D01*
X151589357Y-99617634D01*
X153097634Y-100368667D01*
X154530180Y-101255662D01*
X155874774Y-102271052D01*
X157119944Y-103406174D01*
X158255066Y-104651344D01*
X159270456Y-105995938D01*
X160157451Y-107428484D01*
X160908484Y-108936761D01*
X161517146Y-110507901D01*
X161978246Y-112128499D01*
X162287849Y-113784728D01*
X162443314Y-115462459D01*
X162443314Y-117147377D01*
X162287849Y-118825108D01*
X161978246Y-120481337D01*
X161517146Y-122101935D01*
X160908484Y-123673075D01*
X160157451Y-125181352D01*
X159270456Y-126613898D01*
X158255066Y-127958492D01*
X157119944Y-129203662D01*
X155874774Y-130338784D01*
X154530180Y-131354174D01*
X153097634Y-132241169D01*
X151589357Y-132992202D01*
X150018217Y-133600864D01*
X148397619Y-134061964D01*
X146741390Y-134371567D01*
X145063659Y-134527032D01*
X143378741Y-134527032D01*
X141701010Y-134371567D01*
X140044781Y-134061964D01*
X138424183Y-133600864D01*
X136853043Y-132992202D01*
X135344766Y-132241169D01*
X133912220Y-131354174D01*
X132567626Y-130338784D01*
X132124258Y-129934600D01*
X136637128Y-129934600D01*
X136637128Y-131634600D01*
X136649388Y-131759082D01*
X136685698Y-131878780D01*
X136744663Y-131989094D01*
X136824015Y-132085785D01*
X136920706Y-132165137D01*
X137031020Y-132224102D01*
X137150718Y-132260412D01*
X137275200Y-132272672D01*
X138975200Y-132272672D01*
X139099682Y-132260412D01*
X139219380Y-132224102D01*
X139329694Y-132165137D01*
X139426385Y-132085785D01*
X139505737Y-131989094D01*
X139564702Y-131878780D01*
X139601012Y-131759082D01*
X139613272Y-131634600D01*
X139613272Y-130686189D01*
X143489696Y-130686189D01*
X143549157Y-130919957D01*
X143787602Y-131030854D01*
X144043100Y-131093103D01*
X144305833Y-131104310D01*
X144565704Y-131064045D01*
X144812726Y-130973855D01*
X144913563Y-130919957D01*
X144973024Y-130686189D01*
X144231360Y-129944525D01*
X143489696Y-130686189D01*
X139613272Y-130686189D01*
X139613272Y-129934600D01*
X139603896Y-129839393D01*
X142891970Y-129839393D01*
X142932235Y-130099264D01*
X143022425Y-130346286D01*
X143076323Y-130447123D01*
X143310091Y-130506584D01*
X144051755Y-129764920D01*
X144410965Y-129764920D01*
X145152629Y-130506584D01*
X145386397Y-130447123D01*
X145497294Y-130208678D01*
X145559543Y-129953180D01*
X145570750Y-129690447D01*
X145530485Y-129430576D01*
X145440295Y-129183554D01*
X145386397Y-129082717D01*
X145152629Y-129023256D01*
X144410965Y-129764920D01*
X144051755Y-129764920D01*
X143310091Y-129023256D01*
X143076323Y-129082717D01*
X142965426Y-129321162D01*
X142903177Y-129576660D01*
X142891970Y-129839393D01*
X139603896Y-129839393D01*
X139601012Y-129810118D01*
X139564702Y-129690420D01*
X139505737Y-129580106D01*
X139426385Y-129483415D01*
X139329694Y-129404063D01*
X139219380Y-129345098D01*
X139099682Y-129308788D01*
X138975200Y-129296528D01*
X137275200Y-129296528D01*
X137150718Y-129308788D01*
X137031020Y-129345098D01*
X136920706Y-129404063D01*
X136824015Y-129483415D01*
X136744663Y-129580106D01*
X136685698Y-129690420D01*
X136649388Y-129810118D01*
X136637128Y-129934600D01*
X132124258Y-129934600D01*
X131322456Y-129203662D01*
X130187334Y-127958492D01*
X129171944Y-126613898D01*
X128284949Y-125181352D01*
X127533916Y-123673075D01*
X127083471Y-122510340D01*
X128766200Y-122510340D01*
X128766200Y-122802860D01*
X128823268Y-123089758D01*
X128935210Y-123360011D01*
X129097725Y-123603232D01*
X129304568Y-123810075D01*
X129547789Y-123972590D01*
X129818042Y-124084532D01*
X130104940Y-124141600D01*
X130397460Y-124141600D01*
X130684358Y-124084532D01*
X130954611Y-123972590D01*
X131197832Y-123810075D01*
X131404675Y-123603232D01*
X131567190Y-123360011D01*
X131679132Y-123089758D01*
X131735456Y-122806600D01*
X132686256Y-122806600D01*
X132772206Y-122877137D01*
X132882520Y-122936102D01*
X133002218Y-122972412D01*
X133126700Y-122984672D01*
X134651700Y-122984672D01*
X134776182Y-122972412D01*
X134895880Y-122936102D01*
X135006194Y-122877137D01*
X135102885Y-122797785D01*
X135182237Y-122701094D01*
X135241202Y-122590780D01*
X135277512Y-122471082D01*
X135289772Y-122346600D01*
X135289772Y-121696600D01*
X135277512Y-121572118D01*
X135241202Y-121452420D01*
X135206020Y-121386600D01*
X135241202Y-121320780D01*
X135277512Y-121201082D01*
X135289772Y-121076600D01*
X135286700Y-121037350D01*
X135127950Y-120878600D01*
X134016200Y-120878600D01*
X134016200Y-120898600D01*
X133762200Y-120898600D01*
X133762200Y-120878600D01*
X132650450Y-120878600D01*
X132491700Y-121037350D01*
X132488628Y-121076600D01*
X132500888Y-121201082D01*
X132511662Y-121236600D01*
X131215958Y-121236600D01*
X131348788Y-121116869D01*
X131522841Y-120883520D01*
X131648025Y-120620699D01*
X131692676Y-120473490D01*
X131571355Y-120243600D01*
X130378200Y-120243600D01*
X130378200Y-120263600D01*
X130124200Y-120263600D01*
X130124200Y-120243600D01*
X128931045Y-120243600D01*
X128809724Y-120473490D01*
X128854375Y-120620699D01*
X128979559Y-120883520D01*
X129153612Y-121116869D01*
X129369845Y-121311778D01*
X129486734Y-121381405D01*
X129304568Y-121503125D01*
X129097725Y-121709968D01*
X128935210Y-121953189D01*
X128823268Y-122223442D01*
X128766200Y-122510340D01*
X127083471Y-122510340D01*
X126925254Y-122101935D01*
X126464154Y-120481337D01*
X126154551Y-118825108D01*
X125999086Y-117147377D01*
X125999086Y-115462459D01*
X126117311Y-114186600D01*
X128763128Y-114186600D01*
X128763128Y-115886600D01*
X128775388Y-116011082D01*
X128811698Y-116130780D01*
X128870663Y-116241094D01*
X128950015Y-116337785D01*
X129046706Y-116417137D01*
X129157020Y-116476102D01*
X129229580Y-116498113D01*
X129097725Y-116629968D01*
X128935210Y-116873189D01*
X128823268Y-117143442D01*
X128766200Y-117430340D01*
X128766200Y-117722860D01*
X128823268Y-118009758D01*
X128935210Y-118280011D01*
X129097725Y-118523232D01*
X129304568Y-118730075D01*
X129486734Y-118851795D01*
X129369845Y-118921422D01*
X129153612Y-119116331D01*
X128979559Y-119349680D01*
X128854375Y-119612501D01*
X128809724Y-119759710D01*
X128931045Y-119989600D01*
X130124200Y-119989600D01*
X130124200Y-119969600D01*
X130378200Y-119969600D01*
X130378200Y-119989600D01*
X131571355Y-119989600D01*
X131692676Y-119759710D01*
X131648025Y-119612501D01*
X131522841Y-119349680D01*
X131348788Y-119116331D01*
X131132555Y-118921422D01*
X131015666Y-118851795D01*
X131197832Y-118730075D01*
X131404675Y-118523232D01*
X131567190Y-118280011D01*
X131679132Y-118009758D01*
X131736200Y-117722860D01*
X131736200Y-117430340D01*
X131698275Y-117239682D01*
X132481357Y-116456600D01*
X134413887Y-116456600D01*
X134415192Y-116469854D01*
X134465728Y-116636450D01*
X134547795Y-116789986D01*
X134658238Y-116924562D01*
X134792814Y-117035005D01*
X134946350Y-117117072D01*
X135112946Y-117167608D01*
X135210402Y-117177207D01*
X135020118Y-117367490D01*
X135006194Y-117356063D01*
X134895880Y-117297098D01*
X134776182Y-117260788D01*
X134651700Y-117248528D01*
X133126700Y-117248528D01*
X133002218Y-117260788D01*
X132882520Y-117297098D01*
X132772206Y-117356063D01*
X132675515Y-117435415D01*
X132596163Y-117532106D01*
X132537198Y-117642420D01*
X132500888Y-117762118D01*
X132488628Y-117886600D01*
X132488628Y-118536600D01*
X132500888Y-118661082D01*
X132537198Y-118780780D01*
X132572380Y-118846600D01*
X132537198Y-118912420D01*
X132500888Y-119032118D01*
X132488628Y-119156600D01*
X132488628Y-119806600D01*
X132500888Y-119931082D01*
X132537198Y-120050780D01*
X132572380Y-120116600D01*
X132537198Y-120182420D01*
X132500888Y-120302118D01*
X132488628Y-120426600D01*
X132491700Y-120465850D01*
X132650450Y-120624600D01*
X133762200Y-120624600D01*
X133762200Y-120604600D01*
X134016200Y-120604600D01*
X134016200Y-120624600D01*
X135127950Y-120624600D01*
X135286700Y-120465850D01*
X135289772Y-120426600D01*
X135277512Y-120302118D01*
X135250003Y-120211433D01*
X135253560Y-120210354D01*
X135389933Y-120137462D01*
X135509464Y-120039364D01*
X135534047Y-120009410D01*
X138039038Y-117504420D01*
X138050819Y-117494752D01*
X138020163Y-117532106D01*
X137961198Y-117642420D01*
X137924888Y-117762118D01*
X137912628Y-117886600D01*
X137912628Y-118536600D01*
X137924888Y-118661082D01*
X137961198Y-118780780D01*
X137996380Y-118846600D01*
X137961198Y-118912420D01*
X137924888Y-119032118D01*
X137912628Y-119156600D01*
X137912628Y-119806600D01*
X137920884Y-119890427D01*
X137859748Y-119964921D01*
X137782955Y-120108590D01*
X137735666Y-120264480D01*
X137719699Y-120426600D01*
X137719699Y-121076600D01*
X137735666Y-121238720D01*
X137782955Y-121394610D01*
X137859748Y-121538279D01*
X137920884Y-121612773D01*
X137912628Y-121696600D01*
X137912628Y-122267014D01*
X136454390Y-123725253D01*
X136424436Y-123749836D01*
X136326338Y-123869368D01*
X136253446Y-124005741D01*
X136208559Y-124153714D01*
X136197200Y-124269040D01*
X136197200Y-124269047D01*
X136193403Y-124307600D01*
X136197200Y-124346153D01*
X136197201Y-126235040D01*
X136193403Y-126273602D01*
X136208559Y-126427488D01*
X136253446Y-126575461D01*
X136287377Y-126638942D01*
X136326339Y-126711835D01*
X136366890Y-126761246D01*
X136399855Y-126801414D01*
X136399859Y-126801418D01*
X136424437Y-126831366D01*
X136454385Y-126855944D01*
X137474175Y-127875735D01*
X137498754Y-127905684D01*
X137528702Y-127930262D01*
X137528705Y-127930265D01*
X137558077Y-127954370D01*
X137618285Y-128003782D01*
X137754658Y-128076674D01*
X137902630Y-128121561D01*
X137917008Y-128122977D01*
X138017957Y-128132920D01*
X138017964Y-128132920D01*
X138056517Y-128136717D01*
X138095070Y-128132920D01*
X139246483Y-128132920D01*
X139346297Y-128254543D01*
X139478978Y-128363432D01*
X139630353Y-128444343D01*
X139794604Y-128494168D01*
X139965420Y-128510992D01*
X140440420Y-128510992D01*
X140611236Y-128494168D01*
X140688983Y-128470584D01*
X140706956Y-128492484D01*
X140826487Y-128590582D01*
X140962860Y-128663474D01*
X141110833Y-128708362D01*
X141185746Y-128715740D01*
X141226159Y-128719720D01*
X141226164Y-128719720D01*
X141264720Y-128723517D01*
X141303276Y-128719720D01*
X143521219Y-128719720D01*
X143489696Y-128843651D01*
X144231360Y-129585315D01*
X144973024Y-128843651D01*
X144941501Y-128719720D01*
X152874527Y-128719720D01*
X152913080Y-128723517D01*
X152951633Y-128719720D01*
X152951641Y-128719720D01*
X153066967Y-128708361D01*
X153214940Y-128663474D01*
X153351313Y-128590582D01*
X153470844Y-128492484D01*
X153495427Y-128462530D01*
X155544011Y-126413946D01*
X155573964Y-126389364D01*
X155672062Y-126269833D01*
X155744954Y-126133460D01*
X155749123Y-126119716D01*
X155789842Y-125985487D01*
X155799697Y-125885420D01*
X155801200Y-125870161D01*
X155801200Y-125870156D01*
X155804997Y-125831600D01*
X155801200Y-125793044D01*
X155801200Y-120441757D01*
X156198285Y-120044672D01*
X158441200Y-120044672D01*
X158565682Y-120032412D01*
X158685380Y-119996102D01*
X158795694Y-119937137D01*
X158868857Y-119877094D01*
X158897896Y-120023083D01*
X158979685Y-120220540D01*
X159098425Y-120398247D01*
X159249553Y-120549375D01*
X159427260Y-120668115D01*
X159624717Y-120749904D01*
X159834337Y-120791600D01*
X160048063Y-120791600D01*
X160257683Y-120749904D01*
X160455140Y-120668115D01*
X160632847Y-120549375D01*
X160783975Y-120398247D01*
X160902715Y-120220540D01*
X160984504Y-120023083D01*
X161026200Y-119813463D01*
X161026200Y-119599737D01*
X160984504Y-119390117D01*
X160902715Y-119192660D01*
X160783975Y-119014953D01*
X160632847Y-118863825D01*
X160455140Y-118745085D01*
X160257683Y-118663296D01*
X160048063Y-118621600D01*
X159834337Y-118621600D01*
X159624717Y-118663296D01*
X159427260Y-118745085D01*
X159249553Y-118863825D01*
X159098425Y-119014953D01*
X159079272Y-119043617D01*
X159079272Y-118206600D01*
X159067012Y-118082118D01*
X159030702Y-117962420D01*
X158971737Y-117852106D01*
X158892385Y-117755415D01*
X158795694Y-117676063D01*
X158685380Y-117617098D01*
X158565682Y-117580788D01*
X158441200Y-117568528D01*
X155941200Y-117568528D01*
X155816718Y-117580788D01*
X155697020Y-117617098D01*
X155586706Y-117676063D01*
X155490015Y-117755415D01*
X155410663Y-117852106D01*
X155351698Y-117962420D01*
X155315388Y-118082118D01*
X155303128Y-118206600D01*
X155303128Y-118719515D01*
X154488385Y-119534258D01*
X154458437Y-119558836D01*
X154433859Y-119588784D01*
X154433855Y-119588788D01*
X154408408Y-119619796D01*
X154360339Y-119678367D01*
X154329722Y-119735648D01*
X154287446Y-119814741D01*
X154242559Y-119962714D01*
X154227403Y-120116600D01*
X154231201Y-120155163D01*
X154231200Y-125506443D01*
X152587923Y-127149720D01*
X141589877Y-127149720D01*
X141285847Y-126845690D01*
X141249343Y-126725353D01*
X141200974Y-126634860D01*
X141328846Y-126479047D01*
X141427586Y-126294318D01*
X141488390Y-126093874D01*
X141508921Y-125885420D01*
X141508921Y-125664267D01*
X141520015Y-125677785D01*
X141616706Y-125757137D01*
X141727020Y-125816102D01*
X141846718Y-125852412D01*
X141971200Y-125864672D01*
X142435450Y-125861600D01*
X142594200Y-125702850D01*
X142594200Y-124053600D01*
X142848200Y-124053600D01*
X142848200Y-125702850D01*
X143006950Y-125861600D01*
X143471200Y-125864672D01*
X143595682Y-125852412D01*
X143715380Y-125816102D01*
X143825694Y-125757137D01*
X143922385Y-125677785D01*
X144001737Y-125581094D01*
X144060702Y-125470780D01*
X144097012Y-125351082D01*
X144109272Y-125226600D01*
X144106200Y-124212350D01*
X143947450Y-124053600D01*
X142848200Y-124053600D01*
X142594200Y-124053600D01*
X142574200Y-124053600D01*
X142574200Y-123799600D01*
X142594200Y-123799600D01*
X142594200Y-122150350D01*
X142848200Y-122150350D01*
X142848200Y-123799600D01*
X143947450Y-123799600D01*
X144106200Y-123640850D01*
X144109272Y-122626600D01*
X144097012Y-122502118D01*
X144060702Y-122382420D01*
X144001737Y-122272106D01*
X143922385Y-122175415D01*
X143825694Y-122096063D01*
X143715380Y-122037098D01*
X143595682Y-122000788D01*
X143471200Y-121988528D01*
X143006950Y-121991600D01*
X142848200Y-122150350D01*
X142594200Y-122150350D01*
X142435450Y-121991600D01*
X141971200Y-121988528D01*
X141902701Y-121995274D01*
X141902701Y-121064589D01*
X141907428Y-121016598D01*
X141902479Y-120966357D01*
X141888564Y-120825074D01*
X141832698Y-120640908D01*
X141741977Y-120471181D01*
X141619887Y-120322413D01*
X141582603Y-120291815D01*
X141557388Y-120266600D01*
X143032443Y-120266600D01*
X143471217Y-120705375D01*
X143495796Y-120735324D01*
X143525744Y-120759902D01*
X143525747Y-120759905D01*
X143533281Y-120766088D01*
X143615327Y-120833422D01*
X143751700Y-120906314D01*
X143899673Y-120951201D01*
X144014999Y-120962560D01*
X144015006Y-120962560D01*
X144053559Y-120966357D01*
X144092112Y-120962560D01*
X144744403Y-120962560D01*
X145770370Y-121988528D01*
X144971200Y-121988528D01*
X144846718Y-122000788D01*
X144727020Y-122037098D01*
X144616706Y-122096063D01*
X144520015Y-122175415D01*
X144440663Y-122272106D01*
X144381698Y-122382420D01*
X144345388Y-122502118D01*
X144333128Y-122626600D01*
X144333128Y-125226600D01*
X144345388Y-125351082D01*
X144381698Y-125470780D01*
X144440663Y-125581094D01*
X144520015Y-125677785D01*
X144616706Y-125757137D01*
X144727020Y-125816102D01*
X144846718Y-125852412D01*
X144971200Y-125864672D01*
X146471200Y-125864672D01*
X146595682Y-125852412D01*
X146715380Y-125816102D01*
X146825694Y-125757137D01*
X146922385Y-125677785D01*
X147001737Y-125581094D01*
X147060702Y-125470780D01*
X147097012Y-125351082D01*
X147109272Y-125226600D01*
X147109272Y-124358649D01*
X147174577Y-124438223D01*
X147307258Y-124547112D01*
X147458633Y-124628023D01*
X147622884Y-124677848D01*
X147793700Y-124694672D01*
X148268700Y-124694672D01*
X148439516Y-124677848D01*
X148603767Y-124628023D01*
X148755142Y-124547112D01*
X148887823Y-124438223D01*
X148996712Y-124305542D01*
X149077623Y-124154167D01*
X149127448Y-123989916D01*
X149144272Y-123819100D01*
X149144272Y-123244100D01*
X149127448Y-123073284D01*
X149077623Y-122909033D01*
X148996712Y-122757658D01*
X148913775Y-122656600D01*
X148996712Y-122555542D01*
X149077623Y-122404167D01*
X149127448Y-122239916D01*
X149144272Y-122069100D01*
X149144272Y-121494100D01*
X149127448Y-121323284D01*
X149077623Y-121159033D01*
X148996712Y-121007658D01*
X148887823Y-120874977D01*
X148816200Y-120816197D01*
X148816200Y-120338036D01*
X148819997Y-120299480D01*
X148816200Y-120260920D01*
X148816200Y-120260919D01*
X148810232Y-120200323D01*
X148804842Y-120145593D01*
X148759954Y-119997620D01*
X148742476Y-119964921D01*
X148687062Y-119861247D01*
X148588964Y-119741716D01*
X148559011Y-119717134D01*
X147973465Y-119131588D01*
X147948884Y-119101636D01*
X147829353Y-119003538D01*
X147692980Y-118930646D01*
X147545007Y-118885759D01*
X147429681Y-118874400D01*
X147429673Y-118874400D01*
X147391120Y-118870603D01*
X147352567Y-118874400D01*
X144797757Y-118874400D01*
X143948101Y-118024744D01*
X144000337Y-117961094D01*
X144059302Y-117850780D01*
X144095612Y-117731082D01*
X144107872Y-117606600D01*
X144107872Y-115006600D01*
X144095612Y-114882118D01*
X144059302Y-114762420D01*
X144000337Y-114652106D01*
X143920985Y-114555415D01*
X143824294Y-114476063D01*
X143713980Y-114417098D01*
X143594282Y-114380788D01*
X143469800Y-114368528D01*
X141969800Y-114368528D01*
X141845318Y-114380788D01*
X141725620Y-114417098D01*
X141615306Y-114476063D01*
X141518615Y-114555415D01*
X141439263Y-114652106D01*
X141380298Y-114762420D01*
X141349314Y-114864562D01*
X140074272Y-113589521D01*
X140074272Y-112634830D01*
X140463857Y-113024415D01*
X140488436Y-113054364D01*
X140518384Y-113078942D01*
X140518387Y-113078945D01*
X140537581Y-113094697D01*
X140607967Y-113152462D01*
X140744340Y-113225354D01*
X140892313Y-113270241D01*
X141007639Y-113281600D01*
X141007646Y-113281600D01*
X141046199Y-113285397D01*
X141084752Y-113281600D01*
X147152728Y-113281600D01*
X147065688Y-113387658D01*
X146984777Y-113539033D01*
X146934952Y-113703284D01*
X146918128Y-113874100D01*
X146918128Y-114449100D01*
X146929638Y-114565958D01*
X146920985Y-114555415D01*
X146824294Y-114476063D01*
X146713980Y-114417098D01*
X146594282Y-114380788D01*
X146469800Y-114368528D01*
X144969800Y-114368528D01*
X144845318Y-114380788D01*
X144725620Y-114417098D01*
X144615306Y-114476063D01*
X144518615Y-114555415D01*
X144439263Y-114652106D01*
X144380298Y-114762420D01*
X144343988Y-114882118D01*
X144331728Y-115006600D01*
X144331728Y-117606600D01*
X144343988Y-117731082D01*
X144380298Y-117850780D01*
X144439263Y-117961094D01*
X144518615Y-118057785D01*
X144615306Y-118137137D01*
X144725620Y-118196102D01*
X144845318Y-118232412D01*
X144969800Y-118244672D01*
X146469800Y-118244672D01*
X146594282Y-118232412D01*
X146713980Y-118196102D01*
X146824294Y-118137137D01*
X146920985Y-118057785D01*
X147000337Y-117961094D01*
X147059302Y-117850780D01*
X147095612Y-117731082D01*
X147107872Y-117606600D01*
X147107872Y-116736943D01*
X147174577Y-116818223D01*
X147307258Y-116927112D01*
X147458633Y-117008023D01*
X147622884Y-117057848D01*
X147793700Y-117074672D01*
X148268700Y-117074672D01*
X148439516Y-117057848D01*
X148603767Y-117008023D01*
X148755142Y-116927112D01*
X148887823Y-116818223D01*
X148996712Y-116685542D01*
X149077623Y-116534167D01*
X149127448Y-116369916D01*
X149144272Y-116199100D01*
X149144272Y-115624100D01*
X149127448Y-115453284D01*
X149077623Y-115289033D01*
X148996712Y-115137658D01*
X148913775Y-115036600D01*
X148996712Y-114935542D01*
X149077623Y-114784167D01*
X149127448Y-114619916D01*
X149144272Y-114449100D01*
X149144272Y-113874100D01*
X149127448Y-113703284D01*
X149077623Y-113539033D01*
X148996712Y-113387658D01*
X148909672Y-113281600D01*
X149064233Y-113281600D01*
X152525743Y-116830620D01*
X152553436Y-116864364D01*
X152609418Y-116910308D01*
X152664815Y-116956940D01*
X152669142Y-116959322D01*
X152672967Y-116962462D01*
X152736877Y-116996622D01*
X152800267Y-117031529D01*
X152804978Y-117033023D01*
X152809340Y-117035354D01*
X152878642Y-117056377D01*
X152947668Y-117078260D01*
X152952582Y-117078806D01*
X152957313Y-117080241D01*
X153029440Y-117087345D01*
X153101354Y-117095335D01*
X153144838Y-117091600D01*
X155333746Y-117091600D01*
X155351698Y-117150780D01*
X155410663Y-117261094D01*
X155490015Y-117357785D01*
X155586706Y-117437137D01*
X155697020Y-117496102D01*
X155816718Y-117532412D01*
X155941200Y-117544672D01*
X158441200Y-117544672D01*
X158565682Y-117532412D01*
X158685380Y-117496102D01*
X158795694Y-117437137D01*
X158892385Y-117357785D01*
X158971737Y-117261094D01*
X159030702Y-117150780D01*
X159067012Y-117031082D01*
X159079272Y-116906600D01*
X159079272Y-115706600D01*
X159067012Y-115582118D01*
X159030702Y-115462420D01*
X158971737Y-115352106D01*
X158892385Y-115255415D01*
X158795694Y-115176063D01*
X158685380Y-115117098D01*
X158565682Y-115080788D01*
X158441200Y-115068528D01*
X155941200Y-115068528D01*
X155816718Y-115080788D01*
X155697020Y-115117098D01*
X155586706Y-115176063D01*
X155490015Y-115255415D01*
X155410663Y-115352106D01*
X155351698Y-115462420D01*
X155333746Y-115521600D01*
X153442113Y-115521600D01*
X151184194Y-113206600D01*
X155303128Y-113206600D01*
X155303128Y-114406600D01*
X155315388Y-114531082D01*
X155351698Y-114650780D01*
X155410663Y-114761094D01*
X155490015Y-114857785D01*
X155586706Y-114937137D01*
X155697020Y-114996102D01*
X155816718Y-115032412D01*
X155941200Y-115044672D01*
X158441200Y-115044672D01*
X158565682Y-115032412D01*
X158685380Y-114996102D01*
X158795694Y-114937137D01*
X158892385Y-114857785D01*
X158971737Y-114761094D01*
X159030702Y-114650780D01*
X159067012Y-114531082D01*
X159079272Y-114406600D01*
X159079272Y-113569583D01*
X159098425Y-113598247D01*
X159249553Y-113749375D01*
X159427260Y-113868115D01*
X159624717Y-113949904D01*
X159834337Y-113991600D01*
X160048063Y-113991600D01*
X160257683Y-113949904D01*
X160455140Y-113868115D01*
X160632847Y-113749375D01*
X160783975Y-113598247D01*
X160902715Y-113420540D01*
X160984504Y-113223083D01*
X161026200Y-113013463D01*
X161026200Y-112799737D01*
X160984504Y-112590117D01*
X160902715Y-112392660D01*
X160783975Y-112214953D01*
X160632847Y-112063825D01*
X160455140Y-111945085D01*
X160257683Y-111863296D01*
X160048063Y-111821600D01*
X159834337Y-111821600D01*
X159624717Y-111863296D01*
X159427260Y-111945085D01*
X159249553Y-112063825D01*
X159098425Y-112214953D01*
X158979685Y-112392660D01*
X158897896Y-112590117D01*
X158868857Y-112736106D01*
X158795694Y-112676063D01*
X158685380Y-112617098D01*
X158565682Y-112580788D01*
X158441200Y-112568528D01*
X155941200Y-112568528D01*
X155816718Y-112580788D01*
X155697020Y-112617098D01*
X155586706Y-112676063D01*
X155490015Y-112755415D01*
X155410663Y-112852106D01*
X155351698Y-112962420D01*
X155315388Y-113082118D01*
X155303128Y-113206600D01*
X151184194Y-113206600D01*
X150104964Y-112100087D01*
X150100775Y-112093903D01*
X150051071Y-112044831D01*
X150029279Y-112022488D01*
X150025525Y-112019328D01*
X149974987Y-111968790D01*
X149950404Y-111938836D01*
X149830873Y-111840738D01*
X149694500Y-111767846D01*
X149546527Y-111722959D01*
X149431201Y-111711600D01*
X149431193Y-111711600D01*
X149392640Y-111707803D01*
X149357920Y-111711223D01*
X149298840Y-111711600D01*
X148909672Y-111711600D01*
X148996712Y-111605542D01*
X149077623Y-111454167D01*
X149114127Y-111333830D01*
X149829010Y-110618947D01*
X149858964Y-110594364D01*
X149957062Y-110474833D01*
X150029954Y-110338460D01*
X150040472Y-110303788D01*
X150074842Y-110190487D01*
X150085520Y-110082061D01*
X150086200Y-110075161D01*
X150086200Y-110075156D01*
X150089997Y-110036600D01*
X150086200Y-109998044D01*
X150086200Y-108012552D01*
X150089997Y-107973999D01*
X150086200Y-107935446D01*
X150086200Y-107935439D01*
X150074841Y-107820113D01*
X150029954Y-107672140D01*
X149957062Y-107535767D01*
X149858964Y-107416236D01*
X149829017Y-107391659D01*
X149539813Y-107102455D01*
X152461633Y-107102455D01*
X152461633Y-107730745D01*
X152584206Y-108346962D01*
X152824642Y-108927427D01*
X153173701Y-109449830D01*
X153617970Y-109894099D01*
X154140373Y-110243158D01*
X154720838Y-110483594D01*
X155337055Y-110606167D01*
X155965345Y-110606167D01*
X156581562Y-110483594D01*
X157162027Y-110243158D01*
X157684430Y-109894099D01*
X158128699Y-109449830D01*
X158477758Y-108927427D01*
X158718194Y-108346962D01*
X158840767Y-107730745D01*
X158840767Y-107102455D01*
X158718194Y-106486238D01*
X158477758Y-105905773D01*
X158128699Y-105383370D01*
X157684430Y-104939101D01*
X157162027Y-104590042D01*
X156581562Y-104349606D01*
X155965345Y-104227033D01*
X155337055Y-104227033D01*
X154720838Y-104349606D01*
X154140373Y-104590042D01*
X153617970Y-104939101D01*
X153173701Y-105383370D01*
X152824642Y-105905773D01*
X152584206Y-106486238D01*
X152461633Y-107102455D01*
X149539813Y-107102455D01*
X146986359Y-104549002D01*
X146986359Y-103603471D01*
X146990156Y-103564918D01*
X146986359Y-103526365D01*
X146986359Y-103526358D01*
X146975000Y-103411032D01*
X146930113Y-103263059D01*
X146857221Y-103126686D01*
X146819571Y-103080810D01*
X146836360Y-102996406D01*
X146836360Y-102733434D01*
X146785056Y-102475515D01*
X146684421Y-102232561D01*
X146628892Y-102149455D01*
X146873633Y-102149455D01*
X146873633Y-102777745D01*
X146996206Y-103393962D01*
X147236642Y-103974427D01*
X147585701Y-104496830D01*
X148029970Y-104941099D01*
X148552373Y-105290158D01*
X149132838Y-105530594D01*
X149749055Y-105653167D01*
X150377345Y-105653167D01*
X150993562Y-105530594D01*
X151574027Y-105290158D01*
X152096430Y-104941099D01*
X152540699Y-104496830D01*
X152889758Y-103974427D01*
X153130194Y-103393962D01*
X153252767Y-102777745D01*
X153252767Y-102149455D01*
X153130194Y-101533238D01*
X152889758Y-100952773D01*
X152540699Y-100430370D01*
X152096430Y-99986101D01*
X151574027Y-99637042D01*
X150993562Y-99396606D01*
X150377345Y-99274033D01*
X149749055Y-99274033D01*
X149132838Y-99396606D01*
X148552373Y-99637042D01*
X148029970Y-99986101D01*
X147585701Y-100430370D01*
X147236642Y-100952773D01*
X146996206Y-101533238D01*
X146873633Y-102149455D01*
X146628892Y-102149455D01*
X146538322Y-102013907D01*
X146352373Y-101827958D01*
X146133719Y-101681859D01*
X145890765Y-101581224D01*
X145632846Y-101529920D01*
X145369874Y-101529920D01*
X145111955Y-101581224D01*
X144869001Y-101681859D01*
X144650347Y-101827958D01*
X144464398Y-102013907D01*
X144420290Y-102079920D01*
X144042430Y-102079920D01*
X143998322Y-102013907D01*
X143812373Y-101827958D01*
X143593719Y-101681859D01*
X143350765Y-101581224D01*
X143092846Y-101529920D01*
X142829874Y-101529920D01*
X142571955Y-101581224D01*
X142329001Y-101681859D01*
X142110347Y-101827958D01*
X141924398Y-102013907D01*
X141778299Y-102232561D01*
X141677664Y-102475515D01*
X141642427Y-102652661D01*
X141642427Y-102118975D01*
X141519854Y-101502758D01*
X141279418Y-100922293D01*
X140930359Y-100399890D01*
X140486090Y-99955621D01*
X139963687Y-99606562D01*
X139383222Y-99366126D01*
X138767005Y-99243553D01*
X138138715Y-99243553D01*
X137522498Y-99366126D01*
X136942033Y-99606562D01*
X136419630Y-99955621D01*
X135975361Y-100399890D01*
X135626302Y-100922293D01*
X135385866Y-101502758D01*
X135263293Y-102118975D01*
X135263293Y-102747265D01*
X135385866Y-103363482D01*
X135626302Y-103943947D01*
X135975361Y-104466350D01*
X136419630Y-104910619D01*
X136942033Y-105259678D01*
X137522498Y-105500114D01*
X138138715Y-105622687D01*
X138767005Y-105622687D01*
X139383222Y-105500114D01*
X139963687Y-105259678D01*
X140486090Y-104910619D01*
X140930359Y-104466350D01*
X141279418Y-103943947D01*
X141519854Y-103363482D01*
X141626360Y-102828039D01*
X141626360Y-102996406D01*
X141677664Y-103254325D01*
X141778299Y-103497279D01*
X141924398Y-103715933D01*
X142110347Y-103901882D01*
X142329001Y-104047981D01*
X142571955Y-104148616D01*
X142829874Y-104199920D01*
X143092846Y-104199920D01*
X143350765Y-104148616D01*
X143593719Y-104047981D01*
X143812373Y-103901882D01*
X143998322Y-103715933D01*
X144042430Y-103649920D01*
X144420290Y-103649920D01*
X144464398Y-103715933D01*
X144650347Y-103901882D01*
X144869001Y-104047981D01*
X145111955Y-104148616D01*
X145369874Y-104199920D01*
X145416359Y-104199920D01*
X145416360Y-104835597D01*
X145412562Y-104874159D01*
X145427718Y-105028045D01*
X145472605Y-105176018D01*
X145472606Y-105176019D01*
X145545498Y-105312392D01*
X145586049Y-105361803D01*
X145619014Y-105401971D01*
X145619018Y-105401975D01*
X145643596Y-105431923D01*
X145673544Y-105456501D01*
X148135570Y-107918528D01*
X147793700Y-107918528D01*
X147622884Y-107935352D01*
X147458633Y-107985177D01*
X147307258Y-108066088D01*
X147174577Y-108174977D01*
X147109272Y-108254551D01*
X147109272Y-107386600D01*
X147097012Y-107262118D01*
X147060702Y-107142420D01*
X147001737Y-107032106D01*
X146922385Y-106935415D01*
X146825694Y-106856063D01*
X146715380Y-106797098D01*
X146595682Y-106760788D01*
X146471200Y-106748528D01*
X144971200Y-106748528D01*
X144846718Y-106760788D01*
X144727020Y-106797098D01*
X144616706Y-106856063D01*
X144520015Y-106935415D01*
X144440663Y-107032106D01*
X144381698Y-107142420D01*
X144345388Y-107262118D01*
X144333128Y-107386600D01*
X144333128Y-109986600D01*
X144345388Y-110111082D01*
X144381698Y-110230780D01*
X144440663Y-110341094D01*
X144520015Y-110437785D01*
X144616706Y-110517137D01*
X144727020Y-110576102D01*
X144846718Y-110612412D01*
X144971200Y-110624672D01*
X146471200Y-110624672D01*
X146595682Y-110612412D01*
X146715380Y-110576102D01*
X146825694Y-110517137D01*
X146922385Y-110437785D01*
X146929447Y-110429180D01*
X146918128Y-110544100D01*
X146918128Y-111119100D01*
X146934952Y-111289916D01*
X146984777Y-111454167D01*
X147065688Y-111605542D01*
X147152728Y-111711600D01*
X141371358Y-111711600D01*
X140718526Y-111058769D01*
X140693943Y-111028815D01*
X140574412Y-110930717D01*
X140438039Y-110857825D01*
X140290066Y-110812938D01*
X140174740Y-110801579D01*
X140174732Y-110801579D01*
X140136179Y-110797782D01*
X140097626Y-110801579D01*
X138136378Y-110801579D01*
X139466358Y-109471600D01*
X141333128Y-109471600D01*
X141333128Y-109986600D01*
X141345388Y-110111082D01*
X141381698Y-110230780D01*
X141440663Y-110341094D01*
X141520015Y-110437785D01*
X141616706Y-110517137D01*
X141727020Y-110576102D01*
X141846718Y-110612412D01*
X141971200Y-110624672D01*
X143471200Y-110624672D01*
X143595682Y-110612412D01*
X143715380Y-110576102D01*
X143825694Y-110517137D01*
X143922385Y-110437785D01*
X144001737Y-110341094D01*
X144060702Y-110230780D01*
X144097012Y-110111082D01*
X144109272Y-109986600D01*
X144109272Y-107386600D01*
X144097012Y-107262118D01*
X144060702Y-107142420D01*
X144001737Y-107032106D01*
X143922385Y-106935415D01*
X143825694Y-106856063D01*
X143715380Y-106797098D01*
X143595682Y-106760788D01*
X143471200Y-106748528D01*
X141971200Y-106748528D01*
X141846718Y-106760788D01*
X141727020Y-106797098D01*
X141616706Y-106856063D01*
X141520015Y-106935415D01*
X141440663Y-107032106D01*
X141381698Y-107142420D01*
X141345388Y-107262118D01*
X141333128Y-107386600D01*
X141333128Y-107901600D01*
X139179752Y-107901600D01*
X139141199Y-107897803D01*
X139102646Y-107901600D01*
X139102639Y-107901600D01*
X139001690Y-107911543D01*
X138987312Y-107912959D01*
X138839340Y-107957846D01*
X138702967Y-108030738D01*
X138659894Y-108066088D01*
X138613387Y-108104255D01*
X138613384Y-108104258D01*
X138583436Y-108128836D01*
X138558858Y-108158784D01*
X136383395Y-110334248D01*
X136353447Y-110358826D01*
X136328869Y-110388774D01*
X136328865Y-110388778D01*
X136295900Y-110428946D01*
X136255349Y-110478357D01*
X136252550Y-110483594D01*
X136182456Y-110614731D01*
X136137569Y-110762704D01*
X136122413Y-110916590D01*
X136126211Y-110955153D01*
X136126211Y-111618528D01*
X135286200Y-111618528D01*
X135112946Y-111635592D01*
X134946350Y-111686128D01*
X134792814Y-111768195D01*
X134658238Y-111878638D01*
X134547795Y-112013214D01*
X134465728Y-112166750D01*
X134415192Y-112333346D01*
X134408778Y-112398466D01*
X134394340Y-112402846D01*
X134257967Y-112475738D01*
X134209074Y-112515864D01*
X134168387Y-112549255D01*
X134168384Y-112549258D01*
X134138436Y-112573836D01*
X134113858Y-112603785D01*
X133101043Y-113616600D01*
X132194756Y-113616600D01*
X132156200Y-113612803D01*
X132117644Y-113616600D01*
X132117639Y-113616600D01*
X132077226Y-113620580D01*
X132002313Y-113627958D01*
X131854340Y-113672846D01*
X131717967Y-113745738D01*
X131624087Y-113822784D01*
X131552385Y-113735415D01*
X131455694Y-113656063D01*
X131345380Y-113597098D01*
X131225682Y-113560788D01*
X131101200Y-113548528D01*
X129401200Y-113548528D01*
X129276718Y-113560788D01*
X129157020Y-113597098D01*
X129046706Y-113656063D01*
X128950015Y-113735415D01*
X128870663Y-113832106D01*
X128811698Y-113942420D01*
X128775388Y-114062118D01*
X128763128Y-114186600D01*
X126117311Y-114186600D01*
X126154551Y-113784728D01*
X126464154Y-112128499D01*
X126925254Y-110507901D01*
X127533916Y-108936761D01*
X128284949Y-107428484D01*
X128486817Y-107102455D01*
X129601633Y-107102455D01*
X129601633Y-107730745D01*
X129724206Y-108346962D01*
X129964642Y-108927427D01*
X130313701Y-109449830D01*
X130757970Y-109894099D01*
X131280373Y-110243158D01*
X131860838Y-110483594D01*
X132477055Y-110606167D01*
X133105345Y-110606167D01*
X133721562Y-110483594D01*
X134302027Y-110243158D01*
X134824430Y-109894099D01*
X135268699Y-109449830D01*
X135617758Y-108927427D01*
X135858194Y-108346962D01*
X135980767Y-107730745D01*
X135980767Y-107102455D01*
X135858194Y-106486238D01*
X135617758Y-105905773D01*
X135268699Y-105383370D01*
X134824430Y-104939101D01*
X134302027Y-104590042D01*
X133721562Y-104349606D01*
X133105345Y-104227033D01*
X132477055Y-104227033D01*
X131860838Y-104349606D01*
X131280373Y-104590042D01*
X130757970Y-104939101D01*
X130313701Y-105383370D01*
X129964642Y-105905773D01*
X129724206Y-106486238D01*
X129601633Y-107102455D01*
X128486817Y-107102455D01*
X129171944Y-105995938D01*
X130187334Y-104651344D01*
X131322456Y-103406174D01*
X132567626Y-102271052D01*
X133912220Y-101255662D01*
X135344766Y-100368667D01*
X136853043Y-99617634D01*
X138424183Y-99008972D01*
X140044781Y-98547872D01*
X141701010Y-98238269D01*
X143378741Y-98082804D01*
X145063659Y-98082804D01*
X146741390Y-98238269D01*
G37*
X146741390Y-98238269D02*
X148397619Y-98547872D01*
X150018217Y-99008972D01*
X151589357Y-99617634D01*
X153097634Y-100368667D01*
X154530180Y-101255662D01*
X155874774Y-102271052D01*
X157119944Y-103406174D01*
X158255066Y-104651344D01*
X159270456Y-105995938D01*
X160157451Y-107428484D01*
X160908484Y-108936761D01*
X161517146Y-110507901D01*
X161978246Y-112128499D01*
X162287849Y-113784728D01*
X162443314Y-115462459D01*
X162443314Y-117147377D01*
X162287849Y-118825108D01*
X161978246Y-120481337D01*
X161517146Y-122101935D01*
X160908484Y-123673075D01*
X160157451Y-125181352D01*
X159270456Y-126613898D01*
X158255066Y-127958492D01*
X157119944Y-129203662D01*
X155874774Y-130338784D01*
X154530180Y-131354174D01*
X153097634Y-132241169D01*
X151589357Y-132992202D01*
X150018217Y-133600864D01*
X148397619Y-134061964D01*
X146741390Y-134371567D01*
X145063659Y-134527032D01*
X143378741Y-134527032D01*
X141701010Y-134371567D01*
X140044781Y-134061964D01*
X138424183Y-133600864D01*
X136853043Y-132992202D01*
X135344766Y-132241169D01*
X133912220Y-131354174D01*
X132567626Y-130338784D01*
X132124258Y-129934600D01*
X136637128Y-129934600D01*
X136637128Y-131634600D01*
X136649388Y-131759082D01*
X136685698Y-131878780D01*
X136744663Y-131989094D01*
X136824015Y-132085785D01*
X136920706Y-132165137D01*
X137031020Y-132224102D01*
X137150718Y-132260412D01*
X137275200Y-132272672D01*
X138975200Y-132272672D01*
X139099682Y-132260412D01*
X139219380Y-132224102D01*
X139329694Y-132165137D01*
X139426385Y-132085785D01*
X139505737Y-131989094D01*
X139564702Y-131878780D01*
X139601012Y-131759082D01*
X139613272Y-131634600D01*
X139613272Y-130686189D01*
X143489696Y-130686189D01*
X143549157Y-130919957D01*
X143787602Y-131030854D01*
X144043100Y-131093103D01*
X144305833Y-131104310D01*
X144565704Y-131064045D01*
X144812726Y-130973855D01*
X144913563Y-130919957D01*
X144973024Y-130686189D01*
X144231360Y-129944525D01*
X143489696Y-130686189D01*
X139613272Y-130686189D01*
X139613272Y-129934600D01*
X139603896Y-129839393D01*
X142891970Y-129839393D01*
X142932235Y-130099264D01*
X143022425Y-130346286D01*
X143076323Y-130447123D01*
X143310091Y-130506584D01*
X144051755Y-129764920D01*
X144410965Y-129764920D01*
X145152629Y-130506584D01*
X145386397Y-130447123D01*
X145497294Y-130208678D01*
X145559543Y-129953180D01*
X145570750Y-129690447D01*
X145530485Y-129430576D01*
X145440295Y-129183554D01*
X145386397Y-129082717D01*
X145152629Y-129023256D01*
X144410965Y-129764920D01*
X144051755Y-129764920D01*
X143310091Y-129023256D01*
X143076323Y-129082717D01*
X142965426Y-129321162D01*
X142903177Y-129576660D01*
X142891970Y-129839393D01*
X139603896Y-129839393D01*
X139601012Y-129810118D01*
X139564702Y-129690420D01*
X139505737Y-129580106D01*
X139426385Y-129483415D01*
X139329694Y-129404063D01*
X139219380Y-129345098D01*
X139099682Y-129308788D01*
X138975200Y-129296528D01*
X137275200Y-129296528D01*
X137150718Y-129308788D01*
X137031020Y-129345098D01*
X136920706Y-129404063D01*
X136824015Y-129483415D01*
X136744663Y-129580106D01*
X136685698Y-129690420D01*
X136649388Y-129810118D01*
X136637128Y-129934600D01*
X132124258Y-129934600D01*
X131322456Y-129203662D01*
X130187334Y-127958492D01*
X129171944Y-126613898D01*
X128284949Y-125181352D01*
X127533916Y-123673075D01*
X127083471Y-122510340D01*
X128766200Y-122510340D01*
X128766200Y-122802860D01*
X128823268Y-123089758D01*
X128935210Y-123360011D01*
X129097725Y-123603232D01*
X129304568Y-123810075D01*
X129547789Y-123972590D01*
X129818042Y-124084532D01*
X130104940Y-124141600D01*
X130397460Y-124141600D01*
X130684358Y-124084532D01*
X130954611Y-123972590D01*
X131197832Y-123810075D01*
X131404675Y-123603232D01*
X131567190Y-123360011D01*
X131679132Y-123089758D01*
X131735456Y-122806600D01*
X132686256Y-122806600D01*
X132772206Y-122877137D01*
X132882520Y-122936102D01*
X133002218Y-122972412D01*
X133126700Y-122984672D01*
X134651700Y-122984672D01*
X134776182Y-122972412D01*
X134895880Y-122936102D01*
X135006194Y-122877137D01*
X135102885Y-122797785D01*
X135182237Y-122701094D01*
X135241202Y-122590780D01*
X135277512Y-122471082D01*
X135289772Y-122346600D01*
X135289772Y-121696600D01*
X135277512Y-121572118D01*
X135241202Y-121452420D01*
X135206020Y-121386600D01*
X135241202Y-121320780D01*
X135277512Y-121201082D01*
X135289772Y-121076600D01*
X135286700Y-121037350D01*
X135127950Y-120878600D01*
X134016200Y-120878600D01*
X134016200Y-120898600D01*
X133762200Y-120898600D01*
X133762200Y-120878600D01*
X132650450Y-120878600D01*
X132491700Y-121037350D01*
X132488628Y-121076600D01*
X132500888Y-121201082D01*
X132511662Y-121236600D01*
X131215958Y-121236600D01*
X131348788Y-121116869D01*
X131522841Y-120883520D01*
X131648025Y-120620699D01*
X131692676Y-120473490D01*
X131571355Y-120243600D01*
X130378200Y-120243600D01*
X130378200Y-120263600D01*
X130124200Y-120263600D01*
X130124200Y-120243600D01*
X128931045Y-120243600D01*
X128809724Y-120473490D01*
X128854375Y-120620699D01*
X128979559Y-120883520D01*
X129153612Y-121116869D01*
X129369845Y-121311778D01*
X129486734Y-121381405D01*
X129304568Y-121503125D01*
X129097725Y-121709968D01*
X128935210Y-121953189D01*
X128823268Y-122223442D01*
X128766200Y-122510340D01*
X127083471Y-122510340D01*
X126925254Y-122101935D01*
X126464154Y-120481337D01*
X126154551Y-118825108D01*
X125999086Y-117147377D01*
X125999086Y-115462459D01*
X126117311Y-114186600D01*
X128763128Y-114186600D01*
X128763128Y-115886600D01*
X128775388Y-116011082D01*
X128811698Y-116130780D01*
X128870663Y-116241094D01*
X128950015Y-116337785D01*
X129046706Y-116417137D01*
X129157020Y-116476102D01*
X129229580Y-116498113D01*
X129097725Y-116629968D01*
X128935210Y-116873189D01*
X128823268Y-117143442D01*
X128766200Y-117430340D01*
X128766200Y-117722860D01*
X128823268Y-118009758D01*
X128935210Y-118280011D01*
X129097725Y-118523232D01*
X129304568Y-118730075D01*
X129486734Y-118851795D01*
X129369845Y-118921422D01*
X129153612Y-119116331D01*
X128979559Y-119349680D01*
X128854375Y-119612501D01*
X128809724Y-119759710D01*
X128931045Y-119989600D01*
X130124200Y-119989600D01*
X130124200Y-119969600D01*
X130378200Y-119969600D01*
X130378200Y-119989600D01*
X131571355Y-119989600D01*
X131692676Y-119759710D01*
X131648025Y-119612501D01*
X131522841Y-119349680D01*
X131348788Y-119116331D01*
X131132555Y-118921422D01*
X131015666Y-118851795D01*
X131197832Y-118730075D01*
X131404675Y-118523232D01*
X131567190Y-118280011D01*
X131679132Y-118009758D01*
X131736200Y-117722860D01*
X131736200Y-117430340D01*
X131698275Y-117239682D01*
X132481357Y-116456600D01*
X134413887Y-116456600D01*
X134415192Y-116469854D01*
X134465728Y-116636450D01*
X134547795Y-116789986D01*
X134658238Y-116924562D01*
X134792814Y-117035005D01*
X134946350Y-117117072D01*
X135112946Y-117167608D01*
X135210402Y-117177207D01*
X135020118Y-117367490D01*
X135006194Y-117356063D01*
X134895880Y-117297098D01*
X134776182Y-117260788D01*
X134651700Y-117248528D01*
X133126700Y-117248528D01*
X133002218Y-117260788D01*
X132882520Y-117297098D01*
X132772206Y-117356063D01*
X132675515Y-117435415D01*
X132596163Y-117532106D01*
X132537198Y-117642420D01*
X132500888Y-117762118D01*
X132488628Y-117886600D01*
X132488628Y-118536600D01*
X132500888Y-118661082D01*
X132537198Y-118780780D01*
X132572380Y-118846600D01*
X132537198Y-118912420D01*
X132500888Y-119032118D01*
X132488628Y-119156600D01*
X132488628Y-119806600D01*
X132500888Y-119931082D01*
X132537198Y-120050780D01*
X132572380Y-120116600D01*
X132537198Y-120182420D01*
X132500888Y-120302118D01*
X132488628Y-120426600D01*
X132491700Y-120465850D01*
X132650450Y-120624600D01*
X133762200Y-120624600D01*
X133762200Y-120604600D01*
X134016200Y-120604600D01*
X134016200Y-120624600D01*
X135127950Y-120624600D01*
X135286700Y-120465850D01*
X135289772Y-120426600D01*
X135277512Y-120302118D01*
X135250003Y-120211433D01*
X135253560Y-120210354D01*
X135389933Y-120137462D01*
X135509464Y-120039364D01*
X135534047Y-120009410D01*
X138039038Y-117504420D01*
X138050819Y-117494752D01*
X138020163Y-117532106D01*
X137961198Y-117642420D01*
X137924888Y-117762118D01*
X137912628Y-117886600D01*
X137912628Y-118536600D01*
X137924888Y-118661082D01*
X137961198Y-118780780D01*
X137996380Y-118846600D01*
X137961198Y-118912420D01*
X137924888Y-119032118D01*
X137912628Y-119156600D01*
X137912628Y-119806600D01*
X137920884Y-119890427D01*
X137859748Y-119964921D01*
X137782955Y-120108590D01*
X137735666Y-120264480D01*
X137719699Y-120426600D01*
X137719699Y-121076600D01*
X137735666Y-121238720D01*
X137782955Y-121394610D01*
X137859748Y-121538279D01*
X137920884Y-121612773D01*
X137912628Y-121696600D01*
X137912628Y-122267014D01*
X136454390Y-123725253D01*
X136424436Y-123749836D01*
X136326338Y-123869368D01*
X136253446Y-124005741D01*
X136208559Y-124153714D01*
X136197200Y-124269040D01*
X136197200Y-124269047D01*
X136193403Y-124307600D01*
X136197200Y-124346153D01*
X136197201Y-126235040D01*
X136193403Y-126273602D01*
X136208559Y-126427488D01*
X136253446Y-126575461D01*
X136287377Y-126638942D01*
X136326339Y-126711835D01*
X136366890Y-126761246D01*
X136399855Y-126801414D01*
X136399859Y-126801418D01*
X136424437Y-126831366D01*
X136454385Y-126855944D01*
X137474175Y-127875735D01*
X137498754Y-127905684D01*
X137528702Y-127930262D01*
X137528705Y-127930265D01*
X137558077Y-127954370D01*
X137618285Y-128003782D01*
X137754658Y-128076674D01*
X137902630Y-128121561D01*
X137917008Y-128122977D01*
X138017957Y-128132920D01*
X138017964Y-128132920D01*
X138056517Y-128136717D01*
X138095070Y-128132920D01*
X139246483Y-128132920D01*
X139346297Y-128254543D01*
X139478978Y-128363432D01*
X139630353Y-128444343D01*
X139794604Y-128494168D01*
X139965420Y-128510992D01*
X140440420Y-128510992D01*
X140611236Y-128494168D01*
X140688983Y-128470584D01*
X140706956Y-128492484D01*
X140826487Y-128590582D01*
X140962860Y-128663474D01*
X141110833Y-128708362D01*
X141185746Y-128715740D01*
X141226159Y-128719720D01*
X141226164Y-128719720D01*
X141264720Y-128723517D01*
X141303276Y-128719720D01*
X143521219Y-128719720D01*
X143489696Y-128843651D01*
X144231360Y-129585315D01*
X144973024Y-128843651D01*
X144941501Y-128719720D01*
X152874527Y-128719720D01*
X152913080Y-128723517D01*
X152951633Y-128719720D01*
X152951641Y-128719720D01*
X153066967Y-128708361D01*
X153214940Y-128663474D01*
X153351313Y-128590582D01*
X153470844Y-128492484D01*
X153495427Y-128462530D01*
X155544011Y-126413946D01*
X155573964Y-126389364D01*
X155672062Y-126269833D01*
X155744954Y-126133460D01*
X155749123Y-126119716D01*
X155789842Y-125985487D01*
X155799697Y-125885420D01*
X155801200Y-125870161D01*
X155801200Y-125870156D01*
X155804997Y-125831600D01*
X155801200Y-125793044D01*
X155801200Y-120441757D01*
X156198285Y-120044672D01*
X158441200Y-120044672D01*
X158565682Y-120032412D01*
X158685380Y-119996102D01*
X158795694Y-119937137D01*
X158868857Y-119877094D01*
X158897896Y-120023083D01*
X158979685Y-120220540D01*
X159098425Y-120398247D01*
X159249553Y-120549375D01*
X159427260Y-120668115D01*
X159624717Y-120749904D01*
X159834337Y-120791600D01*
X160048063Y-120791600D01*
X160257683Y-120749904D01*
X160455140Y-120668115D01*
X160632847Y-120549375D01*
X160783975Y-120398247D01*
X160902715Y-120220540D01*
X160984504Y-120023083D01*
X161026200Y-119813463D01*
X161026200Y-119599737D01*
X160984504Y-119390117D01*
X160902715Y-119192660D01*
X160783975Y-119014953D01*
X160632847Y-118863825D01*
X160455140Y-118745085D01*
X160257683Y-118663296D01*
X160048063Y-118621600D01*
X159834337Y-118621600D01*
X159624717Y-118663296D01*
X159427260Y-118745085D01*
X159249553Y-118863825D01*
X159098425Y-119014953D01*
X159079272Y-119043617D01*
X159079272Y-118206600D01*
X159067012Y-118082118D01*
X159030702Y-117962420D01*
X158971737Y-117852106D01*
X158892385Y-117755415D01*
X158795694Y-117676063D01*
X158685380Y-117617098D01*
X158565682Y-117580788D01*
X158441200Y-117568528D01*
X155941200Y-117568528D01*
X155816718Y-117580788D01*
X155697020Y-117617098D01*
X155586706Y-117676063D01*
X155490015Y-117755415D01*
X155410663Y-117852106D01*
X155351698Y-117962420D01*
X155315388Y-118082118D01*
X155303128Y-118206600D01*
X155303128Y-118719515D01*
X154488385Y-119534258D01*
X154458437Y-119558836D01*
X154433859Y-119588784D01*
X154433855Y-119588788D01*
X154408408Y-119619796D01*
X154360339Y-119678367D01*
X154329722Y-119735648D01*
X154287446Y-119814741D01*
X154242559Y-119962714D01*
X154227403Y-120116600D01*
X154231201Y-120155163D01*
X154231200Y-125506443D01*
X152587923Y-127149720D01*
X141589877Y-127149720D01*
X141285847Y-126845690D01*
X141249343Y-126725353D01*
X141200974Y-126634860D01*
X141328846Y-126479047D01*
X141427586Y-126294318D01*
X141488390Y-126093874D01*
X141508921Y-125885420D01*
X141508921Y-125664267D01*
X141520015Y-125677785D01*
X141616706Y-125757137D01*
X141727020Y-125816102D01*
X141846718Y-125852412D01*
X141971200Y-125864672D01*
X142435450Y-125861600D01*
X142594200Y-125702850D01*
X142594200Y-124053600D01*
X142848200Y-124053600D01*
X142848200Y-125702850D01*
X143006950Y-125861600D01*
X143471200Y-125864672D01*
X143595682Y-125852412D01*
X143715380Y-125816102D01*
X143825694Y-125757137D01*
X143922385Y-125677785D01*
X144001737Y-125581094D01*
X144060702Y-125470780D01*
X144097012Y-125351082D01*
X144109272Y-125226600D01*
X144106200Y-124212350D01*
X143947450Y-124053600D01*
X142848200Y-124053600D01*
X142594200Y-124053600D01*
X142574200Y-124053600D01*
X142574200Y-123799600D01*
X142594200Y-123799600D01*
X142594200Y-122150350D01*
X142848200Y-122150350D01*
X142848200Y-123799600D01*
X143947450Y-123799600D01*
X144106200Y-123640850D01*
X144109272Y-122626600D01*
X144097012Y-122502118D01*
X144060702Y-122382420D01*
X144001737Y-122272106D01*
X143922385Y-122175415D01*
X143825694Y-122096063D01*
X143715380Y-122037098D01*
X143595682Y-122000788D01*
X143471200Y-121988528D01*
X143006950Y-121991600D01*
X142848200Y-122150350D01*
X142594200Y-122150350D01*
X142435450Y-121991600D01*
X141971200Y-121988528D01*
X141902701Y-121995274D01*
X141902701Y-121064589D01*
X141907428Y-121016598D01*
X141902479Y-120966357D01*
X141888564Y-120825074D01*
X141832698Y-120640908D01*
X141741977Y-120471181D01*
X141619887Y-120322413D01*
X141582603Y-120291815D01*
X141557388Y-120266600D01*
X143032443Y-120266600D01*
X143471217Y-120705375D01*
X143495796Y-120735324D01*
X143525744Y-120759902D01*
X143525747Y-120759905D01*
X143533281Y-120766088D01*
X143615327Y-120833422D01*
X143751700Y-120906314D01*
X143899673Y-120951201D01*
X144014999Y-120962560D01*
X144015006Y-120962560D01*
X144053559Y-120966357D01*
X144092112Y-120962560D01*
X144744403Y-120962560D01*
X145770370Y-121988528D01*
X144971200Y-121988528D01*
X144846718Y-122000788D01*
X144727020Y-122037098D01*
X144616706Y-122096063D01*
X144520015Y-122175415D01*
X144440663Y-122272106D01*
X144381698Y-122382420D01*
X144345388Y-122502118D01*
X144333128Y-122626600D01*
X144333128Y-125226600D01*
X144345388Y-125351082D01*
X144381698Y-125470780D01*
X144440663Y-125581094D01*
X144520015Y-125677785D01*
X144616706Y-125757137D01*
X144727020Y-125816102D01*
X144846718Y-125852412D01*
X144971200Y-125864672D01*
X146471200Y-125864672D01*
X146595682Y-125852412D01*
X146715380Y-125816102D01*
X146825694Y-125757137D01*
X146922385Y-125677785D01*
X147001737Y-125581094D01*
X147060702Y-125470780D01*
X147097012Y-125351082D01*
X147109272Y-125226600D01*
X147109272Y-124358649D01*
X147174577Y-124438223D01*
X147307258Y-124547112D01*
X147458633Y-124628023D01*
X147622884Y-124677848D01*
X147793700Y-124694672D01*
X148268700Y-124694672D01*
X148439516Y-124677848D01*
X148603767Y-124628023D01*
X148755142Y-124547112D01*
X148887823Y-124438223D01*
X148996712Y-124305542D01*
X149077623Y-124154167D01*
X149127448Y-123989916D01*
X149144272Y-123819100D01*
X149144272Y-123244100D01*
X149127448Y-123073284D01*
X149077623Y-122909033D01*
X148996712Y-122757658D01*
X148913775Y-122656600D01*
X148996712Y-122555542D01*
X149077623Y-122404167D01*
X149127448Y-122239916D01*
X149144272Y-122069100D01*
X149144272Y-121494100D01*
X149127448Y-121323284D01*
X149077623Y-121159033D01*
X148996712Y-121007658D01*
X148887823Y-120874977D01*
X148816200Y-120816197D01*
X148816200Y-120338036D01*
X148819997Y-120299480D01*
X148816200Y-120260920D01*
X148816200Y-120260919D01*
X148810232Y-120200323D01*
X148804842Y-120145593D01*
X148759954Y-119997620D01*
X148742476Y-119964921D01*
X148687062Y-119861247D01*
X148588964Y-119741716D01*
X148559011Y-119717134D01*
X147973465Y-119131588D01*
X147948884Y-119101636D01*
X147829353Y-119003538D01*
X147692980Y-118930646D01*
X147545007Y-118885759D01*
X147429681Y-118874400D01*
X147429673Y-118874400D01*
X147391120Y-118870603D01*
X147352567Y-118874400D01*
X144797757Y-118874400D01*
X143948101Y-118024744D01*
X144000337Y-117961094D01*
X144059302Y-117850780D01*
X144095612Y-117731082D01*
X144107872Y-117606600D01*
X144107872Y-115006600D01*
X144095612Y-114882118D01*
X144059302Y-114762420D01*
X144000337Y-114652106D01*
X143920985Y-114555415D01*
X143824294Y-114476063D01*
X143713980Y-114417098D01*
X143594282Y-114380788D01*
X143469800Y-114368528D01*
X141969800Y-114368528D01*
X141845318Y-114380788D01*
X141725620Y-114417098D01*
X141615306Y-114476063D01*
X141518615Y-114555415D01*
X141439263Y-114652106D01*
X141380298Y-114762420D01*
X141349314Y-114864562D01*
X140074272Y-113589521D01*
X140074272Y-112634830D01*
X140463857Y-113024415D01*
X140488436Y-113054364D01*
X140518384Y-113078942D01*
X140518387Y-113078945D01*
X140537581Y-113094697D01*
X140607967Y-113152462D01*
X140744340Y-113225354D01*
X140892313Y-113270241D01*
X141007639Y-113281600D01*
X141007646Y-113281600D01*
X141046199Y-113285397D01*
X141084752Y-113281600D01*
X147152728Y-113281600D01*
X147065688Y-113387658D01*
X146984777Y-113539033D01*
X146934952Y-113703284D01*
X146918128Y-113874100D01*
X146918128Y-114449100D01*
X146929638Y-114565958D01*
X146920985Y-114555415D01*
X146824294Y-114476063D01*
X146713980Y-114417098D01*
X146594282Y-114380788D01*
X146469800Y-114368528D01*
X144969800Y-114368528D01*
X144845318Y-114380788D01*
X144725620Y-114417098D01*
X144615306Y-114476063D01*
X144518615Y-114555415D01*
X144439263Y-114652106D01*
X144380298Y-114762420D01*
X144343988Y-114882118D01*
X144331728Y-115006600D01*
X144331728Y-117606600D01*
X144343988Y-117731082D01*
X144380298Y-117850780D01*
X144439263Y-117961094D01*
X144518615Y-118057785D01*
X144615306Y-118137137D01*
X144725620Y-118196102D01*
X144845318Y-118232412D01*
X144969800Y-118244672D01*
X146469800Y-118244672D01*
X146594282Y-118232412D01*
X146713980Y-118196102D01*
X146824294Y-118137137D01*
X146920985Y-118057785D01*
X147000337Y-117961094D01*
X147059302Y-117850780D01*
X147095612Y-117731082D01*
X147107872Y-117606600D01*
X147107872Y-116736943D01*
X147174577Y-116818223D01*
X147307258Y-116927112D01*
X147458633Y-117008023D01*
X147622884Y-117057848D01*
X147793700Y-117074672D01*
X148268700Y-117074672D01*
X148439516Y-117057848D01*
X148603767Y-117008023D01*
X148755142Y-116927112D01*
X148887823Y-116818223D01*
X148996712Y-116685542D01*
X149077623Y-116534167D01*
X149127448Y-116369916D01*
X149144272Y-116199100D01*
X149144272Y-115624100D01*
X149127448Y-115453284D01*
X149077623Y-115289033D01*
X148996712Y-115137658D01*
X148913775Y-115036600D01*
X148996712Y-114935542D01*
X149077623Y-114784167D01*
X149127448Y-114619916D01*
X149144272Y-114449100D01*
X149144272Y-113874100D01*
X149127448Y-113703284D01*
X149077623Y-113539033D01*
X148996712Y-113387658D01*
X148909672Y-113281600D01*
X149064233Y-113281600D01*
X152525743Y-116830620D01*
X152553436Y-116864364D01*
X152609418Y-116910308D01*
X152664815Y-116956940D01*
X152669142Y-116959322D01*
X152672967Y-116962462D01*
X152736877Y-116996622D01*
X152800267Y-117031529D01*
X152804978Y-117033023D01*
X152809340Y-117035354D01*
X152878642Y-117056377D01*
X152947668Y-117078260D01*
X152952582Y-117078806D01*
X152957313Y-117080241D01*
X153029440Y-117087345D01*
X153101354Y-117095335D01*
X153144838Y-117091600D01*
X155333746Y-117091600D01*
X155351698Y-117150780D01*
X155410663Y-117261094D01*
X155490015Y-117357785D01*
X155586706Y-117437137D01*
X155697020Y-117496102D01*
X155816718Y-117532412D01*
X155941200Y-117544672D01*
X158441200Y-117544672D01*
X158565682Y-117532412D01*
X158685380Y-117496102D01*
X158795694Y-117437137D01*
X158892385Y-117357785D01*
X158971737Y-117261094D01*
X159030702Y-117150780D01*
X159067012Y-117031082D01*
X159079272Y-116906600D01*
X159079272Y-115706600D01*
X159067012Y-115582118D01*
X159030702Y-115462420D01*
X158971737Y-115352106D01*
X158892385Y-115255415D01*
X158795694Y-115176063D01*
X158685380Y-115117098D01*
X158565682Y-115080788D01*
X158441200Y-115068528D01*
X155941200Y-115068528D01*
X155816718Y-115080788D01*
X155697020Y-115117098D01*
X155586706Y-115176063D01*
X155490015Y-115255415D01*
X155410663Y-115352106D01*
X155351698Y-115462420D01*
X155333746Y-115521600D01*
X153442113Y-115521600D01*
X151184194Y-113206600D01*
X155303128Y-113206600D01*
X155303128Y-114406600D01*
X155315388Y-114531082D01*
X155351698Y-114650780D01*
X155410663Y-114761094D01*
X155490015Y-114857785D01*
X155586706Y-114937137D01*
X155697020Y-114996102D01*
X155816718Y-115032412D01*
X155941200Y-115044672D01*
X158441200Y-115044672D01*
X158565682Y-115032412D01*
X158685380Y-114996102D01*
X158795694Y-114937137D01*
X158892385Y-114857785D01*
X158971737Y-114761094D01*
X159030702Y-114650780D01*
X159067012Y-114531082D01*
X159079272Y-114406600D01*
X159079272Y-113569583D01*
X159098425Y-113598247D01*
X159249553Y-113749375D01*
X159427260Y-113868115D01*
X159624717Y-113949904D01*
X159834337Y-113991600D01*
X160048063Y-113991600D01*
X160257683Y-113949904D01*
X160455140Y-113868115D01*
X160632847Y-113749375D01*
X160783975Y-113598247D01*
X160902715Y-113420540D01*
X160984504Y-113223083D01*
X161026200Y-113013463D01*
X161026200Y-112799737D01*
X160984504Y-112590117D01*
X160902715Y-112392660D01*
X160783975Y-112214953D01*
X160632847Y-112063825D01*
X160455140Y-111945085D01*
X160257683Y-111863296D01*
X160048063Y-111821600D01*
X159834337Y-111821600D01*
X159624717Y-111863296D01*
X159427260Y-111945085D01*
X159249553Y-112063825D01*
X159098425Y-112214953D01*
X158979685Y-112392660D01*
X158897896Y-112590117D01*
X158868857Y-112736106D01*
X158795694Y-112676063D01*
X158685380Y-112617098D01*
X158565682Y-112580788D01*
X158441200Y-112568528D01*
X155941200Y-112568528D01*
X155816718Y-112580788D01*
X155697020Y-112617098D01*
X155586706Y-112676063D01*
X155490015Y-112755415D01*
X155410663Y-112852106D01*
X155351698Y-112962420D01*
X155315388Y-113082118D01*
X155303128Y-113206600D01*
X151184194Y-113206600D01*
X150104964Y-112100087D01*
X150100775Y-112093903D01*
X150051071Y-112044831D01*
X150029279Y-112022488D01*
X150025525Y-112019328D01*
X149974987Y-111968790D01*
X149950404Y-111938836D01*
X149830873Y-111840738D01*
X149694500Y-111767846D01*
X149546527Y-111722959D01*
X149431201Y-111711600D01*
X149431193Y-111711600D01*
X149392640Y-111707803D01*
X149357920Y-111711223D01*
X149298840Y-111711600D01*
X148909672Y-111711600D01*
X148996712Y-111605542D01*
X149077623Y-111454167D01*
X149114127Y-111333830D01*
X149829010Y-110618947D01*
X149858964Y-110594364D01*
X149957062Y-110474833D01*
X150029954Y-110338460D01*
X150040472Y-110303788D01*
X150074842Y-110190487D01*
X150085520Y-110082061D01*
X150086200Y-110075161D01*
X150086200Y-110075156D01*
X150089997Y-110036600D01*
X150086200Y-109998044D01*
X150086200Y-108012552D01*
X150089997Y-107973999D01*
X150086200Y-107935446D01*
X150086200Y-107935439D01*
X150074841Y-107820113D01*
X150029954Y-107672140D01*
X149957062Y-107535767D01*
X149858964Y-107416236D01*
X149829017Y-107391659D01*
X149539813Y-107102455D01*
X152461633Y-107102455D01*
X152461633Y-107730745D01*
X152584206Y-108346962D01*
X152824642Y-108927427D01*
X153173701Y-109449830D01*
X153617970Y-109894099D01*
X154140373Y-110243158D01*
X154720838Y-110483594D01*
X155337055Y-110606167D01*
X155965345Y-110606167D01*
X156581562Y-110483594D01*
X157162027Y-110243158D01*
X157684430Y-109894099D01*
X158128699Y-109449830D01*
X158477758Y-108927427D01*
X158718194Y-108346962D01*
X158840767Y-107730745D01*
X158840767Y-107102455D01*
X158718194Y-106486238D01*
X158477758Y-105905773D01*
X158128699Y-105383370D01*
X157684430Y-104939101D01*
X157162027Y-104590042D01*
X156581562Y-104349606D01*
X155965345Y-104227033D01*
X155337055Y-104227033D01*
X154720838Y-104349606D01*
X154140373Y-104590042D01*
X153617970Y-104939101D01*
X153173701Y-105383370D01*
X152824642Y-105905773D01*
X152584206Y-106486238D01*
X152461633Y-107102455D01*
X149539813Y-107102455D01*
X146986359Y-104549002D01*
X146986359Y-103603471D01*
X146990156Y-103564918D01*
X146986359Y-103526365D01*
X146986359Y-103526358D01*
X146975000Y-103411032D01*
X146930113Y-103263059D01*
X146857221Y-103126686D01*
X146819571Y-103080810D01*
X146836360Y-102996406D01*
X146836360Y-102733434D01*
X146785056Y-102475515D01*
X146684421Y-102232561D01*
X146628892Y-102149455D01*
X146873633Y-102149455D01*
X146873633Y-102777745D01*
X146996206Y-103393962D01*
X147236642Y-103974427D01*
X147585701Y-104496830D01*
X148029970Y-104941099D01*
X148552373Y-105290158D01*
X149132838Y-105530594D01*
X149749055Y-105653167D01*
X150377345Y-105653167D01*
X150993562Y-105530594D01*
X151574027Y-105290158D01*
X152096430Y-104941099D01*
X152540699Y-104496830D01*
X152889758Y-103974427D01*
X153130194Y-103393962D01*
X153252767Y-102777745D01*
X153252767Y-102149455D01*
X153130194Y-101533238D01*
X152889758Y-100952773D01*
X152540699Y-100430370D01*
X152096430Y-99986101D01*
X151574027Y-99637042D01*
X150993562Y-99396606D01*
X150377345Y-99274033D01*
X149749055Y-99274033D01*
X149132838Y-99396606D01*
X148552373Y-99637042D01*
X148029970Y-99986101D01*
X147585701Y-100430370D01*
X147236642Y-100952773D01*
X146996206Y-101533238D01*
X146873633Y-102149455D01*
X146628892Y-102149455D01*
X146538322Y-102013907D01*
X146352373Y-101827958D01*
X146133719Y-101681859D01*
X145890765Y-101581224D01*
X145632846Y-101529920D01*
X145369874Y-101529920D01*
X145111955Y-101581224D01*
X144869001Y-101681859D01*
X144650347Y-101827958D01*
X144464398Y-102013907D01*
X144420290Y-102079920D01*
X144042430Y-102079920D01*
X143998322Y-102013907D01*
X143812373Y-101827958D01*
X143593719Y-101681859D01*
X143350765Y-101581224D01*
X143092846Y-101529920D01*
X142829874Y-101529920D01*
X142571955Y-101581224D01*
X142329001Y-101681859D01*
X142110347Y-101827958D01*
X141924398Y-102013907D01*
X141778299Y-102232561D01*
X141677664Y-102475515D01*
X141642427Y-102652661D01*
X141642427Y-102118975D01*
X141519854Y-101502758D01*
X141279418Y-100922293D01*
X140930359Y-100399890D01*
X140486090Y-99955621D01*
X139963687Y-99606562D01*
X139383222Y-99366126D01*
X138767005Y-99243553D01*
X138138715Y-99243553D01*
X137522498Y-99366126D01*
X136942033Y-99606562D01*
X136419630Y-99955621D01*
X135975361Y-100399890D01*
X135626302Y-100922293D01*
X135385866Y-101502758D01*
X135263293Y-102118975D01*
X135263293Y-102747265D01*
X135385866Y-103363482D01*
X135626302Y-103943947D01*
X135975361Y-104466350D01*
X136419630Y-104910619D01*
X136942033Y-105259678D01*
X137522498Y-105500114D01*
X138138715Y-105622687D01*
X138767005Y-105622687D01*
X139383222Y-105500114D01*
X139963687Y-105259678D01*
X140486090Y-104910619D01*
X140930359Y-104466350D01*
X141279418Y-103943947D01*
X141519854Y-103363482D01*
X141626360Y-102828039D01*
X141626360Y-102996406D01*
X141677664Y-103254325D01*
X141778299Y-103497279D01*
X141924398Y-103715933D01*
X142110347Y-103901882D01*
X142329001Y-104047981D01*
X142571955Y-104148616D01*
X142829874Y-104199920D01*
X143092846Y-104199920D01*
X143350765Y-104148616D01*
X143593719Y-104047981D01*
X143812373Y-103901882D01*
X143998322Y-103715933D01*
X144042430Y-103649920D01*
X144420290Y-103649920D01*
X144464398Y-103715933D01*
X144650347Y-103901882D01*
X144869001Y-104047981D01*
X145111955Y-104148616D01*
X145369874Y-104199920D01*
X145416359Y-104199920D01*
X145416360Y-104835597D01*
X145412562Y-104874159D01*
X145427718Y-105028045D01*
X145472605Y-105176018D01*
X145472606Y-105176019D01*
X145545498Y-105312392D01*
X145586049Y-105361803D01*
X145619014Y-105401971D01*
X145619018Y-105401975D01*
X145643596Y-105431923D01*
X145673544Y-105456501D01*
X148135570Y-107918528D01*
X147793700Y-107918528D01*
X147622884Y-107935352D01*
X147458633Y-107985177D01*
X147307258Y-108066088D01*
X147174577Y-108174977D01*
X147109272Y-108254551D01*
X147109272Y-107386600D01*
X147097012Y-107262118D01*
X147060702Y-107142420D01*
X147001737Y-107032106D01*
X146922385Y-106935415D01*
X146825694Y-106856063D01*
X146715380Y-106797098D01*
X146595682Y-106760788D01*
X146471200Y-106748528D01*
X144971200Y-106748528D01*
X144846718Y-106760788D01*
X144727020Y-106797098D01*
X144616706Y-106856063D01*
X144520015Y-106935415D01*
X144440663Y-107032106D01*
X144381698Y-107142420D01*
X144345388Y-107262118D01*
X144333128Y-107386600D01*
X144333128Y-109986600D01*
X144345388Y-110111082D01*
X144381698Y-110230780D01*
X144440663Y-110341094D01*
X144520015Y-110437785D01*
X144616706Y-110517137D01*
X144727020Y-110576102D01*
X144846718Y-110612412D01*
X144971200Y-110624672D01*
X146471200Y-110624672D01*
X146595682Y-110612412D01*
X146715380Y-110576102D01*
X146825694Y-110517137D01*
X146922385Y-110437785D01*
X146929447Y-110429180D01*
X146918128Y-110544100D01*
X146918128Y-111119100D01*
X146934952Y-111289916D01*
X146984777Y-111454167D01*
X147065688Y-111605542D01*
X147152728Y-111711600D01*
X141371358Y-111711600D01*
X140718526Y-111058769D01*
X140693943Y-111028815D01*
X140574412Y-110930717D01*
X140438039Y-110857825D01*
X140290066Y-110812938D01*
X140174740Y-110801579D01*
X140174732Y-110801579D01*
X140136179Y-110797782D01*
X140097626Y-110801579D01*
X138136378Y-110801579D01*
X139466358Y-109471600D01*
X141333128Y-109471600D01*
X141333128Y-109986600D01*
X141345388Y-110111082D01*
X141381698Y-110230780D01*
X141440663Y-110341094D01*
X141520015Y-110437785D01*
X141616706Y-110517137D01*
X141727020Y-110576102D01*
X141846718Y-110612412D01*
X141971200Y-110624672D01*
X143471200Y-110624672D01*
X143595682Y-110612412D01*
X143715380Y-110576102D01*
X143825694Y-110517137D01*
X143922385Y-110437785D01*
X144001737Y-110341094D01*
X144060702Y-110230780D01*
X144097012Y-110111082D01*
X144109272Y-109986600D01*
X144109272Y-107386600D01*
X144097012Y-107262118D01*
X144060702Y-107142420D01*
X144001737Y-107032106D01*
X143922385Y-106935415D01*
X143825694Y-106856063D01*
X143715380Y-106797098D01*
X143595682Y-106760788D01*
X143471200Y-106748528D01*
X141971200Y-106748528D01*
X141846718Y-106760788D01*
X141727020Y-106797098D01*
X141616706Y-106856063D01*
X141520015Y-106935415D01*
X141440663Y-107032106D01*
X141381698Y-107142420D01*
X141345388Y-107262118D01*
X141333128Y-107386600D01*
X141333128Y-107901600D01*
X139179752Y-107901600D01*
X139141199Y-107897803D01*
X139102646Y-107901600D01*
X139102639Y-107901600D01*
X139001690Y-107911543D01*
X138987312Y-107912959D01*
X138839340Y-107957846D01*
X138702967Y-108030738D01*
X138659894Y-108066088D01*
X138613387Y-108104255D01*
X138613384Y-108104258D01*
X138583436Y-108128836D01*
X138558858Y-108158784D01*
X136383395Y-110334248D01*
X136353447Y-110358826D01*
X136328869Y-110388774D01*
X136328865Y-110388778D01*
X136295900Y-110428946D01*
X136255349Y-110478357D01*
X136252550Y-110483594D01*
X136182456Y-110614731D01*
X136137569Y-110762704D01*
X136122413Y-110916590D01*
X136126211Y-110955153D01*
X136126211Y-111618528D01*
X135286200Y-111618528D01*
X135112946Y-111635592D01*
X134946350Y-111686128D01*
X134792814Y-111768195D01*
X134658238Y-111878638D01*
X134547795Y-112013214D01*
X134465728Y-112166750D01*
X134415192Y-112333346D01*
X134408778Y-112398466D01*
X134394340Y-112402846D01*
X134257967Y-112475738D01*
X134209074Y-112515864D01*
X134168387Y-112549255D01*
X134168384Y-112549258D01*
X134138436Y-112573836D01*
X134113858Y-112603785D01*
X133101043Y-113616600D01*
X132194756Y-113616600D01*
X132156200Y-113612803D01*
X132117644Y-113616600D01*
X132117639Y-113616600D01*
X132077226Y-113620580D01*
X132002313Y-113627958D01*
X131854340Y-113672846D01*
X131717967Y-113745738D01*
X131624087Y-113822784D01*
X131552385Y-113735415D01*
X131455694Y-113656063D01*
X131345380Y-113597098D01*
X131225682Y-113560788D01*
X131101200Y-113548528D01*
X129401200Y-113548528D01*
X129276718Y-113560788D01*
X129157020Y-113597098D01*
X129046706Y-113656063D01*
X128950015Y-113735415D01*
X128870663Y-113832106D01*
X128811698Y-113942420D01*
X128775388Y-114062118D01*
X128763128Y-114186600D01*
X126117311Y-114186600D01*
X126154551Y-113784728D01*
X126464154Y-112128499D01*
X126925254Y-110507901D01*
X127533916Y-108936761D01*
X128284949Y-107428484D01*
X128486817Y-107102455D01*
X129601633Y-107102455D01*
X129601633Y-107730745D01*
X129724206Y-108346962D01*
X129964642Y-108927427D01*
X130313701Y-109449830D01*
X130757970Y-109894099D01*
X131280373Y-110243158D01*
X131860838Y-110483594D01*
X132477055Y-110606167D01*
X133105345Y-110606167D01*
X133721562Y-110483594D01*
X134302027Y-110243158D01*
X134824430Y-109894099D01*
X135268699Y-109449830D01*
X135617758Y-108927427D01*
X135858194Y-108346962D01*
X135980767Y-107730745D01*
X135980767Y-107102455D01*
X135858194Y-106486238D01*
X135617758Y-105905773D01*
X135268699Y-105383370D01*
X134824430Y-104939101D01*
X134302027Y-104590042D01*
X133721562Y-104349606D01*
X133105345Y-104227033D01*
X132477055Y-104227033D01*
X131860838Y-104349606D01*
X131280373Y-104590042D01*
X130757970Y-104939101D01*
X130313701Y-105383370D01*
X129964642Y-105905773D01*
X129724206Y-106486238D01*
X129601633Y-107102455D01*
X128486817Y-107102455D01*
X129171944Y-105995938D01*
X130187334Y-104651344D01*
X131322456Y-103406174D01*
X132567626Y-102271052D01*
X133912220Y-101255662D01*
X135344766Y-100368667D01*
X136853043Y-99617634D01*
X138424183Y-99008972D01*
X140044781Y-98547872D01*
X141701010Y-98238269D01*
X143378741Y-98082804D01*
X145063659Y-98082804D01*
X146741390Y-98238269D01*
M02*
